<?xml version="1.0" standalone="no"?>
<!DOCTYPE svg PUBLIC "-//W3C//DTD SVG 1.1//EN" "http://www.w3.org/Graphics/SVG/1.1/DTD/svg11.dtd" >
<svg xmlns="http://www.w3.org/2000/svg" xmlns:xlink="http://www.w3.org/1999/xlink" version="1.1">
<metadata></metadata>
<defs>
<font id="belwebold" horiz-adv-x="1099" >
<font-face units-per-em="2048" ascent="1638" descent="-410" />
<missing-glyph horiz-adv-x="548" />
<glyph horiz-adv-x="0" />
<glyph horiz-adv-x="682" />
<glyph unicode=" "  horiz-adv-x="548" />
<glyph unicode="&#x09;" horiz-adv-x="548" />
<glyph unicode="&#xa0;" horiz-adv-x="548" />
<glyph unicode="!" horiz-adv-x="757" d="M160 1223q0 91 58 150t161 59t161 -59t58 -150q0 -60 -21 -144t-45.5 -163t-45.5 -209.5t-21 -270.5h-172q0 140 -21 270.5t-45.5 209.5t-45.5 163t-21 144zM205 152q0 71 51.5 123.5t122.5 52.5q72 0 124 -52.5t52 -123.5q0 -72 -52 -123.5t-124 -51.5t-123 51.5 t-51 123.5z" />
<glyph unicode="&#x22;" horiz-adv-x="681" d="M51.5 1313.5q2.5 28.5 8.5 54.5t31.5 45t66.5 19q28 0 48.5 -8t31.5 -24t17.5 -31t7.5 -38t0.5 -34.5t-1.5 -30.5l-41 -418q-2 -19 -18.5 -41.5t-44.5 -22.5t-45 22.5t-19 41.5l-41 418q-4 19 -1.5 47.5zM418.5 1296.5q-0.5 11.5 0.5 34.5t7.5 38t17.5 31t31.5 24t48.5 8 q41 0 66.5 -19t31.5 -45t8.5 -54.5t-1.5 -47.5l-41 -418q-2 -19 -19 -41.5t-45 -22.5t-44.5 22.5t-18.5 41.5l-41 418q-1 19 -1.5 30.5z" />
<glyph unicode="#" d="M121 342l6 168h166l26 197h-147l6 167h164l47 343h174l-47 -343h158l47 343h174l-47 -343h133l-6 -167h-150l-28 -197h133l-6 -168h-150l-47 -342h-174l47 342h-158l-47 -342h-174l47 342h-147zM465 510h160l26 197h-157z" />
<glyph unicode="$" d="M57 186l195 256q235 -274 383 -274q34 0 62 26.5t28 61.5t-30.5 68.5t-79.5 62.5t-107.5 60.5t-117.5 69t-108 80t-79.5 101.5t-30.5 127q0 153 74.5 245t249.5 130v156h188v-156q184 0 358 -149l-182 -238q-4 5 -14 16q-38 44 -62 69t-66 63t-83 56.5t-80 18.5 q-36 0 -64 -20t-28 -53q0 -40 32 -75.5t82.5 -65.5t112.5 -60.5t123.5 -67.5t112 -80t82.5 -104t32 -133q0 -91 -53 -178t-135.5 -141t-167.5 -58v-168h-188v168q-242 14 -439 186z" />
<glyph unicode="%" horiz-adv-x="1517" d="M104 889q0 162 86.5 260t217.5 98q132 0 218.5 -98t86.5 -260t-86.5 -260.5t-216.5 -98.5q-132 0 -219 98.5t-87 260.5zM258 1028q0 -46 32.5 -133t87 -162.5t103.5 -75.5q38 0 58 25t20 68q0 46 -32.5 132.5t-87 162t-103.5 75.5q-38 0 -58 -24.5t-20 -67.5zM350 -31 l707 1278h123l-707 -1278h-123zM807 328q0 162 86 260t217 98q132 0 218.5 -98t86.5 -260t-86.5 -260.5t-216.5 -98.5q-132 0 -218.5 98t-86.5 261zM961 467q0 -46 32.5 -133t87 -162.5t103.5 -75.5q38 0 58 24.5t20 67.5q0 46 -33 133t-87.5 162.5t-103.5 75.5 q-38 0 -57.5 -24.5t-19.5 -67.5z" />
<glyph unicode="&#x26;" horiz-adv-x="1593" d="M51 395q0 75 29 145.5t78.5 127t109 101t127.5 77.5q-61 122 -61 225q0 93 38.5 164.5t104 113.5t145 62.5t169.5 20.5q58 0 116.5 -15t111 -44t85.5 -79t33 -112q0 -41 -12 -75.5t-36 -61.5t-50 -47.5t-64.5 -39.5t-67 -31t-71 -28.5t-64.5 -26.5l279 -389q47 58 47 154 q0 52 -19.5 79t-68.5 50v125h430v-160h-148q-9 -95 -16 -141t-32.5 -108.5t-72.5 -121.5q8 -8 31.5 -30.5t33 -31t30 -26t34.5 -24.5t34.5 -16.5t42.5 -13t46 -3.5q41 0 113 33l70 -62q-72 -101 -148.5 -145.5t-193.5 -44.5q-144 0 -289 117q-203 -146 -404 -146 q-103 0 -194 25.5t-165 75.5t-117.5 134.5t-43.5 192.5zM416 498q0 -103 79.5 -188t182.5 -85q82 0 137 31l-326 414q-42 -27 -57.5 -69.5t-15.5 -102.5zM633 1167q0 -42 19.5 -91.5t47.5 -82.5q49 30 85 81t36 104q0 43 -21 79.5t-61 36.5q-58 0 -82 -32t-24 -95z" />
<glyph unicode="'" horiz-adv-x="454" d="M121.5 1296.5q-0.5 11.5 0.5 34.5t7.5 38t17.5 31t31.5 24t48.5 8q41 0 66.5 -19t31.5 -45t8.5 -54.5t-1.5 -47.5l-41 -418q-2 -19 -19 -41.5t-45 -22.5t-44.5 22.5t-18.5 41.5l-41 418q-1 19 -1.5 30.5z" />
<glyph unicode="(" horiz-adv-x="757" d="M80 557q0 266 98 476t299 399l164 -91q-207 -358 -207 -784q0 -406 199 -737l-164 -103q-389 362 -389 840z" />
<glyph unicode=")" horiz-adv-x="757" d="M117 -193q207 358 207 785q0 406 -199 737l164 103q389 -362 389 -840q0 -266 -98 -476t-299 -399z" />
<glyph unicode="*" horiz-adv-x="1024" d="M115 1014l73 248q48 -50 109.5 -85t151.5 -75q0 157 -52 297h230q-52 -140 -52 -297q59 26 95 44t84 49.5t82 66.5l73 -248q-67 2 -99.5 0t-107.5 -11.5t-98 -11.5q76 -109 227 -198l-196 -152q-66 207 -123 305q-57 -98 -123 -305l-196 152q151 89 227 198 q-23 2 -98 11.5t-107.5 11.5t-99.5 0z" />
<glyph unicode="+" horiz-adv-x="1228" d="M115 381v242h381v383h241v-383h377v-242h-377v-381h-241v381h-381z" />
<glyph unicode="," horiz-adv-x="548" d="M94 164q0 67 42 115.5t108 48.5q103 0 157 -56.5t54 -158.5q0 -120 -88 -206t-211 -118l-23 100q23 10 39.5 18t36.5 21.5t32 31t15 38.5q-68 2 -115 49.5t-47 116.5z" />
<glyph unicode="-" horiz-adv-x="681" d="M92 373v260h498v-260h-498z" />
<glyph unicode="." horiz-adv-x="548" d="M100 152q0 71 51.5 123.5t122.5 52.5q72 0 124.5 -52.5t52.5 -123.5q0 -72 -52.5 -123.5t-124.5 -51.5t-123 51.5t-51 123.5z" />
<glyph unicode="/" horiz-adv-x="569" d="M-45 -33l475 1465h184l-475 -1465h-184z" />
<glyph unicode="0" d="M61 608q0 101 18.5 193.5t58 174t96.5 141.5t138.5 95t178.5 35q121 0 216.5 -53t154 -143.5t88.5 -203t30 -239.5t-30 -239.5t-88.5 -203t-154 -143.5t-216.5 -53q-97 0 -178.5 35t-138.5 95t-96.5 141.5t-58 174t-18.5 193.5zM311 860q0 -142 56.5 -298.5t144.5 -261.5 t170 -105q51 0 80 40.5t29 120.5q0 142 -56.5 299t-144.5 262t-170 105q-51 0 -80 -41t-29 -121z" />
<glyph unicode="1" d="M268 874v130q75 30 207 101t170 112h137v-1094h84v-123h-579v123h94v795z" />
<glyph unicode="2" d="M74 793q0 104 45 191.5t119 144t167 87.5t191 31q105 0 201.5 -42t161.5 -126.5t65 -191.5q0 -52 -17.5 -106.5t-41 -99t-68 -98t-76.5 -88t-89 -84.5t-84.5 -72.5t-82.5 -66.5l4 -2h187q115 0 131 97h117l-25 -414h-117l-2 47h-686l-29 168q488 316 488 651 q0 58 -21 114.5t-66.5 97t-105.5 40.5q-41 0 -68.5 -30t-27.5 -70q0 -33 21 -66t52.5 -57.5t56.5 -39.5t46 -24l-184 -315q-51 22 -91.5 47t-82 64t-65 93.5t-23.5 119.5z" />
<glyph unicode="3" d="M51 141l254 254q28 -41 51.5 -72t61 -71.5t78 -63t79.5 -22.5q68 0 103 42t35 111q0 65 -54 122t-126 86.5t-136 29.5q-18 0 -49.5 -5.5t-44.5 -6.5l-74 84l314 317h-90q-87 0 -140.5 -16.5t-101.5 -73.5l-115 43l154 391l115 -39l-13 -34h525l63 -148l-256 -258 q132 -20 215.5 -114t83.5 -226q0 -97 -40 -189t-107 -160.5t-161.5 -110.5t-197.5 -42q-121 0 -222.5 46t-203.5 126z" />
<glyph unicode="4" d="M76 260v160l596 797h231v-797l123 18l-35 -172h-88v-143h82v-123h-588v123h105v137h-426zM244 420h258v338h-6z" />
<glyph unicode="5" d="M80 135l244 275q7 -6 42.5 -39t50 -45.5t48.5 -38.5t56.5 -37t54 -21t61.5 -10q123 0 123 143q0 46 -34.5 85.5t-85 63t-103 37t-93.5 13.5q-69 0 -151 -47l-154 43l150 660h479l12 43h121l-65 -314h-433l-30 -147q89 30 225 30q148 0 252 -106.5t104 -255.5 q0 -130 -58.5 -243.5t-166.5 -184t-240 -70.5q-115 0 -210.5 42t-198.5 124z" />
<glyph unicode="6" d="M63 547q0 137 43 262.5t120 223t196 156t260 58.5q77 0 150.5 -29t130.5 -81l-250 -246q-8 9 -39 46.5t-46.5 52.5t-46.5 31.5t-63 16.5q-79 0 -112 -51t-33 -156q0 -17 1 -36t2.5 -42t2.5 -36q70 51 138.5 74.5t154.5 23.5q110 0 195 -59.5t127 -152.5t42 -200 q0 -128 -72.5 -229t-184.5 -153t-238 -52q-96 0 -176.5 34.5t-135.5 91.5t-93 132.5t-55.5 156t-17.5 163.5zM428 520q0 -56 35 -138t99 -149t130 -67q40 0 61 29.5t21 68.5q0 56 -35 138t-99 149t-130 67q-40 0 -61 -29.5t-21 -68.5z" />
<glyph unicode="7" d="M113 860l82 418l118 -14v-47h576l98 -187q-90 -64 -158 -195.5t-102.5 -283t-49.5 -294t-9 -257.5h-402q3 472 408 946h-279q-69 0 -102.5 -23.5t-56.5 -88.5z" />
<glyph unicode="8" d="M104 289q0 107 50.5 184t148.5 154q-82 54 -116.5 111t-34.5 149q0 103 59 187t151.5 128.5t194.5 44.5q70 0 140 -19t130.5 -55.5t98 -97t37.5 -135.5q0 -19 -2 -36t-3.5 -30t-8.5 -29.5t-9.5 -25t-14.5 -25.5t-14.5 -22t-18.5 -23.5t-19 -22t-23 -25.5t-23 -25 q90 -71 129 -131t39 -158q0 -124 -67.5 -222t-168 -147t-210.5 -49q-88 0 -165.5 18.5t-141.5 56t-101 100.5t-37 145zM367 434q0 -59 52.5 -118.5t123.5 -94.5t129 -35q38 0 68 23t30 61q0 87 -350 277q-53 -43 -53 -113zM406 991q0 -33 34.5 -69.5t76.5 -62t92 -55 t67 -42.5q39 44 39 104q0 75 -68.5 142t-142.5 67q-43 0 -70.5 -21t-27.5 -63z" />
<glyph unicode="9" d="M63 813q0 128 73 229t185 153t238 52q96 0 176.5 -34.5t135 -91.5t92.5 -132.5t55.5 -155.5t17.5 -163q0 -137 -42.5 -262.5t-120 -223.5t-196 -156.5t-259.5 -58.5q-76 0 -150 29t-131 82l250 246q11 -12 32 -38t35 -41.5t34.5 -33.5t44 -26.5t49.5 -8.5q79 0 112 51 t33 156q0 17 -1 36t-2.5 42.5t-2.5 36.5q-70 -52 -139 -75.5t-154 -23.5q-110 0 -195 59.5t-127.5 152.5t-42.5 200zM326 952q0 -56 35 -138t99 -149t130 -67q40 0 61 29.5t21 68.5q0 56 -35 138t-99 149.5t-130 67.5q-40 0 -61 -30t-21 -69z" />
<glyph unicode=":" horiz-adv-x="548" d="M100 152q0 71 51.5 123.5t122.5 52.5q72 0 124.5 -52.5t52.5 -123.5q0 -72 -52.5 -123.5t-124.5 -51.5t-123 51.5t-51 123.5zM100 645q0 71 51.5 123.5t122.5 52.5q72 0 124.5 -52.5t52.5 -123.5q0 -72 -52.5 -123t-124.5 -51t-123 51t-51 123z" />
<glyph unicode=";" horiz-adv-x="548" d="M94 164q0 67 42 115.5t108 48.5q103 0 157 -56.5t54 -158.5q0 -120 -88 -206t-211 -118l-23 100q23 10 39.5 18t36.5 21.5t32 31t15 38.5q-68 2 -115 49.5t-47 116.5zM98 645q0 71 51.5 123.5t122.5 52.5q72 0 124.5 -52.5t52.5 -123.5q0 -72 -52.5 -123t-124.5 -51 t-123 51t-51 123z" />
<glyph unicode="&#x3c;" horiz-adv-x="1228" d="M94 406v192l1041 438v-235l-721 -299l721 -297v-236z" />
<glyph unicode="=" horiz-adv-x="1228" d="M115 139v242h999v-242h-999zM115 623v241h999v-241h-999z" />
<glyph unicode="&#x3e;" horiz-adv-x="1228" d="M94 -31v236l721 297l-721 299v235l1041 -438v-192z" />
<glyph unicode="?" horiz-adv-x="1062" d="M82 1034q0 93 41.5 170.5t110 126t153 75t174.5 26.5q189 0 304.5 -97.5t115.5 -279.5q0 -52 -13.5 -93.5t-44 -77.5t-53.5 -56.5t-69 -55.5q-2 -1 -3 -2t-3 -2.5t-3.5 -3t-3.5 -2.5q-46 -35 -73.5 -60t-59 -65t-46.5 -89.5t-15 -111.5h-227q-1 161 28 253t80 157 q10 12 33 39t32.5 40.5t23 38t19 52t5.5 61.5q0 24 -3 46.5t-11 50t-27 44.5t-47 17q-42 0 -63 -26.5t-21 -71.5q0 -91 61 -187l-340 -145q-55 104 -55 229zM317 152q0 71 51.5 123.5t123.5 52.5t124 -52.5t52 -123.5q0 -72 -52 -123.5t-124 -51.5t-123.5 51.5t-51.5 123.5z " />
<glyph unicode="@" horiz-adv-x="1638" d="M84 668q0 222 106.5 398.5t282.5 271t385 94.5q194 0 354 -81t252 -224.5t92 -319.5q0 -66 -16.5 -136t-50 -136t-79.5 -118.5t-111 -84t-138 -31.5q-49 0 -89 19t-61 46t-32 51t-10 38h-4q-11 -36 -84.5 -92.5t-157.5 -59.5q-34 -1 -68 12.5t-65.5 42t-51.5 81.5 t-20 122q0 58 15.5 126t50 139.5t82 129t119 94.5t153.5 37q24 0 43 -4.5t30.5 -10t23 -18.5t16.5 -20t14.5 -24t13.5 -23l21 68h162l-115 -465q-2 -15 -7 -41.5t-5 -32.5q0 -44 14.5 -78.5t44.5 -34.5q43 0 89 64t76 159t30 179q0 86 -38 169t-104.5 149t-168.5 106.5 t-220 40.5q-68 0 -136.5 -19t-138 -66t-122 -116t-86 -179t-33.5 -245q0 -146 80.5 -266.5t203 -185t253.5 -64.5q133 0 226.5 24.5t192.5 75.5l21 -129q-232 -133 -438 -133q-160 0 -295.5 45.5t-226 118.5t-154 166.5t-92.5 187.5t-29 183zM719 610q0 -76 26 -126t58 -50 q82 0 143 95.5t82 291.5q0 70 -17 102.5t-61 32.5q-47 0 -100 -44.5t-92 -127t-39 -174.5z" />
<glyph unicode="A" horiz-adv-x="1441" d="M16 0v160h82l424 1239h391l437 -1239h77v-160h-643v160h111l-61 174h-463l-62 -174h119v-160h-412zM434 522h336l-170 482h-4z" />
<glyph unicode="B" horiz-adv-x="1402" d="M76 0v160h88v1079h-84v160h717q442 0 442 -295q0 -72 -22 -122.5t-65.5 -80.5t-94 -46.5t-121.5 -25.5v-4q172 -18 281.5 -120.5t109.5 -270.5q0 -434 -520 -434h-731zM606 279q0 -74 24 -103t77 -29q63 0 105 26t61 74t25.5 94t6.5 108q0 139 -53.5 211.5t-173.5 72.5 h-72v-454zM606 893q53 0 91.5 6.5t72 24.5t51 54.5t17.5 90.5q0 44 -12 76t-31 50t-51 28t-63 13t-75 3v-346z" />
<glyph unicode="C" horiz-adv-x="1366" d="M37 627q0 170 61 320.5t164 256t242.5 167t292.5 61.5q89 0 164.5 -37.5t166.5 -108.5l64 43l96 -119l-450 -360l-84 104q22 17 35.5 47.5t13.5 59.5q0 77 -37 126.5t-111 49.5q-53 0 -90 -30t-54.5 -80t-24.5 -96.5t-7 -96.5q0 -147 34.5 -272.5t92 -207.5t131 -127.5 t152.5 -45.5q112 0 187.5 40.5t166.5 131.5l105 -105q-65 -92 -128 -158t-140.5 -118.5t-169.5 -78.5t-201 -26q-135 0 -252.5 39t-213 116.5t-151 207t-55.5 297.5z" />
<glyph unicode="D" horiz-adv-x="1478" d="M66 0v160h104v1079h-94v160h583q218 0 384 -80t261 -239.5t95 -377.5q0 -343 -194.5 -522.5t-536.5 -179.5h-602zM612 160q72 0 128.5 24t93 67.5t61.5 96t38 118t18 123t5 122.5q0 63 -3.5 115.5t-13 108t-25.5 99t-42.5 83t-62 65.5t-85.5 41.5t-112 15.5v-1079z" />
<glyph unicode="E" horiz-adv-x="1251" d="M72 0v160h94v1079h-94v160h1052v-291h-147v70q-113 61 -246 61h-123v-324h369v103h147v-381h-147v90h-369v-567h66q71 0 122 8.5t94 30t65 63t22 103.5h147v-365h-1052z" />
<glyph unicode="F" horiz-adv-x="1214" d="M76 0v160h98v1079h-98v160h1042v-295h-147v70q-113 61 -246 61h-109v-320h355v103h147v-385h-147v94h-355v-567h142v-160h-682z" />
<glyph unicode="G" horiz-adv-x="1517" d="M31 645q0 164 64 310t173.5 250.5t260.5 165.5t319 61q159 0 364 -138l76 49l86 -129l-444 -284l-76 114q29 29 29 78q0 55 -41.5 85t-98.5 30q-54 0 -97.5 -19t-71 -48t-47.5 -71.5t-30 -79.5t-16 -83t-7 -72t-1 -55q0 -152 37 -265t105.5 -181t160 -101t207.5 -33v445 h-244v160h555q12 0 26.5 3.5t23.5 7t26 10.5t23 9l49 -100q-33 -26 -45.5 -48.5t-12.5 -62.5v-653h-110l-90 137q-233 -170 -496 -170q-297 0 -477 185t-180 493z" />
<glyph unicode="H" horiz-adv-x="1593" d="M80 0v160h98v1079h-98v160h645v-160h-104v-324h354v324h-94v160h635v-160h-99v-1079h99v-160h-635v160h94v567h-354v-567h104v-160h-645z" />
<glyph unicode="I" horiz-adv-x="796" d="M88 0v160h86v1079h-86v160h621v-160h-93v-1079h93v-160h-621z" />
<glyph unicode="J" horiz-adv-x="833" d="M33 215q40 -8 69 -8q77 0 103 45.5t26 130.5v856h-102v160h639v-160h-94v-813q0 -234 -99 -346.5t-331 -112.5q-114 0 -195 29z" />
<glyph unicode="K" horiz-adv-x="1478" d="M80 0v160h94v1079h-94v160h645v-160h-109v-381l381 381h-96v160h459v-160h-90l-291 -289l410 -790h86v-160h-512l-295 635l-52 -49v-426h109v-160h-645z" />
<glyph unicode="L" horiz-adv-x="1138" d="M76 0v160h90v1079h-90v160h655v-160h-123v-1079h146q99 0 150.5 63t51.5 164h138l-31 -455h-150v68h-837z" />
<glyph unicode="M" horiz-adv-x="1744" d="M33 0v160h88l110 1079h-102v160h492l253 -647l279 647h469v-160h-115l95 -1079h90v-160h-635v160h114l-49 633h-4q-216 -439 -258 -793h-215q-24 193 -89.5 385.5t-168.5 417.5h-4l-66 -643h119v-160h-403z" />
<glyph unicode="N" horiz-adv-x="1441" d="M96 0v160h84v1079h-84v160h467l492 -690h4v530h-105v160h408v-160h-94v-1239h-267l-608 913h-4v-753h119v-160h-412z" />
<glyph unicode="O" horiz-adv-x="1593" d="M72 688q0 125 30.5 237t93 204.5t150.5 160t209 105t264 37.5q153 0 284.5 -55t223 -150.5t143.5 -229t52 -286.5q0 -157 -49.5 -292t-142 -236t-235.5 -158.5t-321 -57.5q-204 0 -365 94t-249 258.5t-88 368.5zM514 883q0 -124 27.5 -252t74 -232.5t115.5 -170.5 t146 -66q73 0 115 28.5t64.5 106.5t22.5 219q0 168 -45 332.5t-130 276.5t-187 112q-73 0 -115.5 -28.5t-65 -106.5t-22.5 -219z" />
<glyph unicode="P" horiz-adv-x="1441" d="M72 0v160h98v1079h-88v160h541q85 0 158 -5.5t151 -20.5t140.5 -39t119.5 -65t95 -94.5t60.5 -130t22.5 -170.5q0 -129 -44 -225t-123 -151.5t-177 -82t-217 -26.5q-100 0 -197 19v-248h133v-160h-673zM612 655q0 -118 131 -118q41 0 73 14.5t51.5 42t32.5 57.5 t18.5 70.5t7.5 70.5t2 68q0 76 -18 142t-55 120t-99.5 85.5t-143.5 31.5v-584z" />
<glyph unicode="Q" horiz-adv-x="1593" d="M72 688q0 125 30.5 237t93 204.5t150.5 160t209 105t264 37.5q153 0 284.5 -55t223 -150.5t143.5 -229t52 -286.5q0 -265 -133.5 -457.5t-378.5 -255.5v-4q69 -18 174 -61t182 -63q46 -12 89 -12q29 0 56 5l-323 -287q-65 24 -148.5 72t-145 86t-146.5 68t-166 30 q-74 0 -203 -45l-96 166q162 46 231 57v4q-203 74 -322.5 255.5t-119.5 418.5zM514 883q0 -124 27.5 -252t74 -232.5t115.5 -170.5t146 -66q73 0 115 28.5t64.5 106.5t22.5 219q0 168 -45 332.5t-130 276.5t-187 112q-73 0 -115.5 -28.5t-65 -106.5t-22.5 -219z" />
<glyph unicode="R" horiz-adv-x="1441" d="M70 0v160h94v1079h-90v160h647q43 0 90 -4.5t108 -18t117 -34t111.5 -57t95.5 -83.5t65 -116t25 -152q0 -130 -79.5 -235t-204.5 -152l229 -387h96v-160h-504l-188 471h-76v-311h99v-160h-635zM606 623q141 0 213 82.5t72 228.5q0 153 -67.5 229t-217.5 76v-616z" />
<glyph unicode="S" horiz-adv-x="1327" d="M27 199l243 346q65 -70 118.5 -120t128 -106.5t154 -87t158.5 -30.5q56 0 92.5 27t36.5 83q0 34 -27 63.5t-73 52.5t-105.5 45.5t-125.5 46.5t-132 52t-125.5 66.5t-105.5 84.5t-73 111t-27 142q0 131 71 236t193 163t270 58q170 0 353 -113l59 80l129 -88l-240 -359 q-9 8 -45 40.5t-50.5 45.5t-50.5 42t-56.5 43t-55 35t-61 30.5t-59 17.5t-62.5 8q-37 0 -75 -28.5t-38 -63.5q0 -37 27 -67t73 -51.5t106 -42t126 -42.5t131.5 -48.5t125.5 -66t106 -88.5t73 -121.5t27 -160.5q0 -131 -87.5 -239.5t-225.5 -168t-291 -59.5q-159 0 -306 61 t-304 171z" />
<glyph unicode="T" horiz-adv-x="1251" d="M41 1012l29 420h155v-33h803v33h156l28 -420h-147q-20 106 -66 152t-151 46v-1050h127v-160h-701v160h132v1050q-105 0 -151.5 -46t-66.5 -152h-147z" />
<glyph unicode="U" horiz-adv-x="1593" d="M88 1239v160h537v-967q0 -124 36.5 -173.5t135.5 -49.5q100 0 137 49.5t37 173.5v807h-90v160h532v-1239h92v-160h-501l-31 109q-37 -54 -149.5 -98t-235.5 -44q-406 0 -406 471v801h-94z" />
<glyph unicode="V" horiz-adv-x="1402" d="M25 1239v160h602v-160h-74l74 -211q72 149 96 191q113 192 254 211q16 2 33 2q54 0 118 -21.5t105 -21.5q37 0 86 14l61 -60l-467 -1343h-389l-420 1239h-79zM670 915q0 -9 12 -47l160 -471h4l223 656q-38 0 -111.5 15t-111.5 15q-62 0 -119 -53.5t-57 -114.5z" />
<glyph unicode="W" horiz-adv-x="2048" d="M29 1239v160h581v-160h-61l250 -821h4l131 385l-146 436h-67v160h577v-160h-57l62 -190q6 12 24 48.5t26.5 52.5t27.5 50.5t31 52t33 46.5t38 44.5t41 35t47 29.5t51.5 17t58.5 7q33 0 100 -23t103 -23q39 0 68 15l67 -70l-452 -1331h-377l-162 532h-4l-156 -532h-376 l-396 1239h-67zM1341 926q0 -2 15 -60l139 -458h4l211 634q-36 0 -105.5 20.5t-105.5 20.5q-67 0 -112.5 -46.5t-45.5 -110.5z" />
<glyph unicode="X" horiz-adv-x="1402" d="M33 0v160h76l342 594l-291 485h-70v160h692v-160h-120l194 -326l182 326h-110v160h395v-160h-84l-276 -512l327 -567h80v-160h-692v160h119l-238 403l-229 -403h125v-160h-422z" />
<glyph unicode="Y" horiz-adv-x="1327" d="M10 1239v160h682v-160h-110l223 -381l223 381h-131v160h422v-160h-70l-565 -971l4 -4q22 19 52.5 27.5t86.5 9.5h6q28 0 71 -9q46 -9 59 -9q30 0 53 18.5t61 67.5l94 -15l-92 -362q-105 -25 -176 -25q-68 0 -165 19.5t-146 19.5q-70 0 -176 -35l-88 76l243 399l-497 793 h-64z" />
<glyph unicode="Z" horiz-adv-x="1175" d="M37 217l674 864q-94 23 -201 23q-104 0 -167.5 -40.5t-90.5 -135.5h-156l64 534h151v-63h705l76 -209l-617 -811q74 -19 209 -19q51 0 89 4.5t79.5 18.5t70 44t42.5 75h141l-39 -574h-147v72h-785z" />
<glyph unicode="[" horiz-adv-x="757" d="M135 -283v1682h488v-160h-156v-1362h156v-160h-488z" />
<glyph unicode="\" horiz-adv-x="569" d="M-123 1432h186l627 -1465h-184z" />
<glyph unicode="]" horiz-adv-x="757" d="M135 -123h156v1362h-156v160h488v-1682h-488v160z" />
<glyph unicode="^" horiz-adv-x="1228" d="M150 469l356 748h217l356 -748h-239l-226 508l-227 -508h-237z" />
<glyph unicode="_" horiz-adv-x="1024" d="M0 -154h1024v-102h-1024v102z" />
<glyph unicode="`" horiz-adv-x="681" d="M57 1229l66 244l502 -195l-37 -139z" />
<glyph unicode="a" horiz-adv-x="1175" d="M68 281q0 173 93.5 272.5t235.5 99.5h281v52q0 64 -34.5 99.5t-100.5 35.5q-19 0 -36.5 -2.5t-34 -9.5t-28.5 -12.5t-27 -18.5t-23 -19t-22.5 -23.5t-19 -23t-19.5 -26t-18 -23.5l-127 47l131 356l123 -41l-18 -55q108 47 248 47q180 0 280.5 -82.5t100.5 -257.5v-573h65 v-123h-411l-23 96q-148 -127 -291 -127q-142 0 -233.5 86t-91.5 226zM442 354q0 -170 123 -170q34 0 57 12t35 34t16.5 47t4.5 57v196h-60q-77 0 -126.5 -49t-49.5 -127z" />
<glyph unicode="b" horiz-adv-x="1214" d="M57 1124v133l527 175v-127l-72 -27v-371q108 78 145 96q67 33 148 33q102 0 180 -57t117 -147t39 -195q0 -125 -39 -234.5t-104.5 -187.5t-150 -134.5t-177 -84t-185.5 -27.5q-96 0 -187 29t-161 80v1071zM512 309q0 -64 34.5 -102.5t98.5 -38.5q152 0 152 250 q0 54 -9.5 111t-30.5 117.5t-64.5 99t-102.5 38.5q-39 0 -78 -16v-459z" />
<glyph unicode="c" horiz-adv-x="1024" d="M51 459q0 120 47 228t124 184t178 120.5t206 44.5q125 0 211.5 -53t169.5 -162l-295 -278q-12 45 -28 88.5t-42.5 96t-63.5 84.5t-79 32q-100 0 -100 -182q0 -67 15 -133t45 -127.5t84.5 -99.5t125.5 -38q136 0 252 133l88 -84q-71 -150 -194 -247t-277 -97 q-212 0 -339.5 138.5t-127.5 351.5z" />
<glyph unicode="d" horiz-adv-x="1251" d="M68 438q0 129 37.5 241.5t101 190t151 122t185.5 44.5q123 0 209 -30v149l-70 -18v123l520 172v-132l-76 -28v-1149h68v-123h-408l-30 109q-56 -60 -133.5 -100t-151.5 -40q-120 0 -213.5 65.5t-141.5 171.5t-48 232zM442 565q0 -58 3.5 -101t16 -91t34.5 -78.5t61.5 -51 t93.5 -20.5q51 0 101 17v573q-24 39 -64 61.5t-82 22.5t-72 -17.5t-47.5 -45.5t-28 -73t-13.5 -90t-3 -106z" />
<glyph unicode="e" d="M53 512q0 141 65 261t181.5 191.5t257.5 71.5q197 0 320.5 -116t181.5 -316l-582 -213q72 -180 258 -180q163 0 250 108l78 -83q-201 -267 -510 -267q-230 0 -365 148.5t-135 394.5zM381 731q0 -36 5.5 -67.5t16 -69.5t13.5 -51l264 100q-10 31 -13.5 41.5t-16 43t-21 47 t-24.5 39.5t-31 36.5t-36 21t-44 9.5q-57 0 -85 -41t-28 -109z" />
<glyph unicode="f" horiz-adv-x="720" d="M10 805l76 160h102q-61 61 -61 159q0 132 118 220t300 88q98 0 165 -30t142 -102l-238 -188q-6 45 -40.5 107.5t-71.5 62.5q-64 0 -64 -78q0 -93 66 -162t158 -77h59l-57 -160h-132v-682h115v-123h-579v123h90v682h-148z" />
<glyph unicode="g" d="M35 139q161 24 391 109v4q-68 10 -129.5 38t-112 72t-80.5 109t-30 143q0 106 39.5 189.5t105.5 133t145 74.5t166 25q49 0 89 -4t82.5 -12t54.5 -10l24 77q19 59 55 83t117 24q1 0 76 -6l-45 -209l-8.5 8.5l-8.5 8.5t-7 6.5t-8.5 6.5t-8 4.5t-10 4t-10.5 1.5t-13 1 q-18 0 -27.5 -13t-9.5 -32q0 -10 20 -27.5t48.5 -43t56.5 -60t48 -90.5t20 -123q0 -65 -16.5 -120t-44 -94.5t-68.5 -72.5t-84.5 -55.5t-98.5 -42t-103 -33t-105 -27.5q-6 -1 -9 -2t-7.5 -2t-8.5 -2v-4q51 -5 83 -9.5t91.5 -15t99.5 -23t89 -35t78.5 -49t50 -66.5t20.5 -87 q0 -53 -22 -97.5t-59.5 -73.5t-82 -50.5t-93.5 -33t-89 -16.5t-74 -5q-364 0 -364 205q0 70 62 119t136 57v4q-7 1 -36.5 3.5t-36 3t-30.5 2l-32 2t-27 1.5t-29.5 0.5t-26 -1t-29 -2t-27.5 -3.5zM408 770q0 -36 7.5 -86.5t25 -109.5t41.5 -108.5t61.5 -82.5t81.5 -33 q57 0 81.5 31.5t24.5 105.5q0 36 -7.5 86.5t-25 109.5t-41.5 108.5t-61.5 82.5t-81.5 33q-57 0 -81.5 -31.5t-24.5 -105.5zM537 -180q0 -42 22 -74.5t62 -32.5q77 0 77 76q0 34 -8 58.5t-29 46t-36.5 32t-51.5 33.5q-36 -55 -36 -139z" />
<glyph unicode="h" horiz-adv-x="1327" d="M78 0v123h76v1028l-72 -25v125l522 181v-138l-76 -26v-406q54 45 87 70t81 52.5t97 39.5t106 12q63 0 112.5 -17.5t80 -45.5t50 -66t27 -75.5t7.5 -77.5v-631h73v-123h-526v123h78v524q0 73 -28.5 108.5t-98.5 35.5q-82 0 -146 -86v-582h80v-123h-530z" />
<glyph unicode="i" horiz-adv-x="681" d="M82 0v123h78v684l-74 -14v116l449 127v-913h67v-123h-520zM147 1167q0 70 74.5 123t147.5 53q182 0 182 -129q0 -46 -26.5 -81.5t-68 -54.5t-85 -28.5t-84.5 -9.5q-63 0 -101.5 33t-38.5 94z" />
<glyph unicode="j" horiz-adv-x="681" d="M51 -236q148 55 148 246v793l-78 -19v117l452 135v-825q0 -148 -23.5 -242.5t-84 -158t-151 -96t-238.5 -52.5zM186 1167q0 70 74.5 123t147.5 53q182 0 182 -129q0 -46 -26.5 -81.5t-68 -54.5t-85 -28.5t-84.5 -9.5q-63 0 -101.5 33t-38.5 94z" />
<glyph unicode="k" horiz-adv-x="1251" d="M63 0v123h62v1038l-62 -18v123l527 166v-127l-90 -31v-402q55 41 87.5 63t82 49t98 39.5t100.5 12.5q134 0 214.5 -83.5t80.5 -219.5q0 -69 -21.5 -121.5t-63 -88t-91 -59t-117.5 -42.5l240 -299h96v-123h-463q-27 53 -51 86l-188 262h-4v-225h75v-123h-512zM500 422 l241 162l66 -86q35 53 35 108q0 74 -48 123t-122 49q-97 0 -172 -57v-299z" />
<glyph unicode="l" horiz-adv-x="681" d="M86 0v123h74v1040l-70 -22v119l516 172v-127l-71 -25v-1157h71v-123h-520z" />
<glyph unicode="m" horiz-adv-x="1933" d="M84 0v123h72v686l-72 -14v118l446 123v-151q47 36 79 57.5t76.5 46t90.5 36t94 11.5q89 0 159.5 -48.5t107.5 -131.5q65 57 109 89.5t111 61.5t130 29q47 0 86 -7.5t79.5 -29.5t68.5 -58.5t45.5 -98.5t17.5 -144v-575h65v-123h-512v123h72v534q0 69 -29 101.5t-96 32.5 q-50 0 -127 -68v-600h66v-123h-516v123h75v534q0 69 -29 101.5t-96 32.5q-50 0 -127 -68v-600h66v-123h-512z" />
<glyph unicode="n" horiz-adv-x="1327" d="M80 0v123h72v690l-72 -20v120l450 123v-166q53 41 82 62t77 50t95 41.5t97 12.5q74 0 130 -20t87 -49.5t50 -71t24.5 -76.5t5.5 -74v-622h69v-123h-522v123h78v577q0 42 -32.5 66.5t-76.5 24.5q-47 0 -84 -21t-84 -63v-584h80v-123h-526z" />
<glyph unicode="o" horiz-adv-x="1290" d="M68 504q0 242 163.5 387t413.5 145q164 0 295 -63.5t208 -185.5t77 -283q0 -162 -77 -285t-208 -186.5t-295 -63.5q-163 0 -293.5 63.5t-207 186.5t-76.5 285zM442 649q0 -49 7.5 -111t27.5 -136.5t49.5 -135t77.5 -101t107 -40.5q40 0 68.5 20t43 54.5t21 73t6.5 83.5 q0 49 -7.5 111.5t-27.5 136.5t-49 134.5t-77 101.5t-107 41q-33 0 -58.5 -11t-40 -33t-23.5 -43t-12.5 -52t-4.5 -48.5t-1 -44.5z" />
<glyph unicode="p" horiz-adv-x="1251" d="M63 -195h72v1008l-72 -18v123l447 118v-102q60 37 90 54t77 32.5t91 15.5q180 0 300 -136t120 -353q0 -109 -33 -212t-92.5 -185t-151.5 -131.5t-202 -49.5q-131 0 -199 41v-205h133v-122h-580v122zM510 291q0 -166 127 -166q94 0 135 69t41 238q0 105 -20 181.5 t-47 114.5t-65 60.5t-62 26.5t-50 4h-59v-528z" />
<glyph unicode="q" horiz-adv-x="1251" d="M68 408q0 135 47.5 252.5t128 199.5t191.5 129t235 47q143 0 291 -106l184 76q-10 -73 -10 -123v-1073h71v-127h-573v122h127v265q-124 -101 -256 -101q-82 0 -153.5 25.5t-122.5 68.5t-87.5 99.5t-54.5 119t-18 126.5zM442 653q0 -43 5 -95t19.5 -115.5t36.5 -114 t59.5 -85t84.5 -34.5t113 33v477q-13 40 -23 62t-27.5 46t-44.5 34.5t-65 10.5q-80 0 -119 -66t-39 -153z" />
<glyph unicode="r" horiz-adv-x="909" d="M66 0v123h69v704l-65 -26v125l411 110v-241h4q3 9 13.5 41.5t18 53t22 51t28.5 49t34.5 32.5t43.5 14q44 0 75.5 -9t76.5 -32l24 41l113 -39l-123 -346q-109 41 -166 45q-86 0 -135 -75v-498h100v-123h-544z" />
<glyph unicode="s" horiz-adv-x="948" d="M35 115l172 262q4 -4 37 -39.5t47 -49t47 -45.5t54.5 -47t52 -35t57.5 -28t53 -8q22 0 49 21t27 42q0 31 -28 60t-73.5 54.5t-100 52t-109 57.5t-100 66.5t-73.5 84.5t-28 105q0 173 111 270.5t286 97.5q99 0 182.5 -27.5t178.5 -84.5l-160 -246q-5 5 -33.5 35 t-43.5 45.5t-45 42.5t-51.5 41.5t-48.5 26.5t-49 12q-31 0 -47 -9.5t-16 -37.5q0 -37 28 -68.5t73.5 -55t100 -47.5t109 -54t100 -66t73.5 -91.5t28 -123.5q0 -93 -38 -164.5t-103 -112.5t-142.5 -61.5t-165.5 -20.5q-203 0 -411 146z" />
<glyph unicode="t" horiz-adv-x="757" d="M41 846v112q124 35 222.5 116.5t144.5 195.5l122 -23q-14 -59 -14 -160v-81h182l-30 -160h-152v-592q0 -42 27 -62t57 -20q45 0 98 33l54 -88q-92 -68 -177 -108t-176 -40q-136 0 -197 67t-61 204v606h-100z" />
<glyph unicode="u" horiz-adv-x="1290" d="M74 786v119l446 131v-674q0 -35 4 -60.5t15.5 -49.5t35 -36.5t58.5 -12.5q47 0 84 17.5t57 41.5v537l-76 -17v121l451 133v-913h68v-123h-418l-29 109q-76 -61 -163.5 -100.5t-170.5 -39.5q-148 0 -219.5 71t-71.5 214v553z" />
<glyph unicode="v" horiz-adv-x="1138" d="M23 817l399 219l104 -274h4q13 43 23 72.5t30.5 71t42.5 67t56 44.5t74 19q36 0 82 -11.5t78 -21.5q32 -11 78 -13h11q40 0 74 16l39 -29q-29 -54 -53 -115l-281 -678q-23 -54 -57 -184h-246q-11 33 -20 51l-21 49l-305 652l-72 -33zM575 696q0 -14 17 -53l113 -248 l141 357q-5 -1 -19.5 -5t-23.5 -4t-72.5 17t-75.5 18q-11 1 -22.5 -1.5t-25.5 -9.5t-23 -25.5t-9 -45.5z" />
<glyph unicode="w" horiz-adv-x="1705" d="M18 817l400 219l287 -663l86 198l-84 181l-72 -33l-41 98l399 219l105 -274h4q13 43 23 72t30.5 71t42 67.5t55.5 44.5t74 19q36 0 82 -11.5t78 -21.5q33 -11 79 -13h11q40 0 74 16l39 -29q-33 -61 -54 -115l-280 -678q-26 -60 -58 -184h-245q-9 27 -21 51l-20 49 l-133 285q-100 -212 -156 -385h-246q-11 33 -20 51l-21 49l-305 652l-72 -33zM1143 674q0 -19 22 -68l107 -233l141 356q-4 -1 -19 -4.5t-24 -3.5t-72 17t-75 18q-11 1 -22.5 -1.5t-25.5 -9.5t-23 -25.5t-9 -45.5z" />
<glyph unicode="x" horiz-adv-x="1138" d="M31 0v123h80l258 401l-205 359h-62v123h555v-123h-71l119 -211l120 211h-55v123h313v-123h-65l-221 -365l235 -395h76v-123h-573v123h83l-151 244l-160 -244h76v-123h-352z" />
<glyph unicode="y" horiz-adv-x="1175" d="M12 799l412 237l119 -278h4q16 57 54 118.5t99.5 110.5t124.5 49q48 0 109.5 -21.5t103.5 -21.5q46 0 66 29l59 -64l-508 -1161q-54 -124 -132.5 -185t-207.5 -61q-79 0 -147 27l53 305q121 -55 199 -55q82 3 82 70q0 22 -39 110l-332 717l-63 -45zM588 668q0 -28 18 -68 l111 -242l141 357q-4 -1 -19 -4.5t-24 -3.5q-13 0 -77 18t-83 18q-40 0 -53.5 -20.5t-13.5 -54.5z" />
<glyph unicode="z" horiz-adv-x="948" d="M43 178l475 596q-58 12 -90 12q-157 0 -231 -133l-99 25l82 381h121l-6 -53h528l49 -115l-483 -621q60 -6 64 -6q123 0 202.5 33.5t132.5 130.5l119 -12l-65 -473h-121l6 57h-598z" />
<glyph unicode="{" horiz-adv-x="757" d="M39 573q34 11 56 26.5t34.5 32.5t19 45.5t8 54t1.5 69.5v352q0 60 10 103.5t34.5 74.5t58.5 50.5t89 31t118.5 15.5t154.5 4v-43q-75 -23 -104.5 -72t-29.5 -152v-336q0 -113 -29.5 -171t-117.5 -83v-4q88 -23 117.5 -81t29.5 -171v-335q0 -103 29.5 -152t104.5 -72v-43 q-91 0 -154.5 4t-118.5 15.5t-89 31t-58.5 50.5t-34.5 74.5t-10 103.5v352q0 44 -1.5 69.5t-8 54t-19 45t-34.5 31.5t-56 25z" />
<glyph unicode="|" horiz-adv-x="454" d="M106 -512v2048h242v-2048h-242z" />
<glyph unicode="}" horiz-adv-x="757" d="M135 -240q75 23 104 72t29 152v335q0 113 30 171t118 81v4q-89 25 -118.5 83t-29.5 171v336q0 103 -29 152t-104 72v43q91 0 154.5 -4t118.5 -15.5t89 -31t58.5 -50.5t34.5 -74.5t10 -103.5v-352q0 -44 1.5 -69.5t8 -54t19 -45.5t34.5 -32.5t56 -26.5q-34 -10 -56 -25 t-34.5 -31.5t-19 -45t-8 -54t-1.5 -69.5v-352q0 -60 -10 -103.5t-34.5 -74.5t-58.5 -50.5t-89 -31t-118.5 -15.5t-154.5 -4v43z" />
<glyph unicode="~" horiz-adv-x="1228" d="M141 508q92 176 256 176q81 0 228 -66q12 -5 44 -19.5t48 -21t40.5 -15.5t42.5 -13t34 -4q29 0 55 11.5t49.5 36t38 44.5t37.5 55l73 -196q-29 -41 -49 -65.5t-52.5 -54t-71 -43.5t-83.5 -14q-52 0 -99 17t-109 51q-128 72 -236 72q-61 0 -101.5 -41t-70.5 -107z" />
<glyph unicode="&#xa1;" horiz-adv-x="757" d="M160 -109q0 60 21 144t45.5 163t45.5 209.5t21 270.5h172q0 -140 21 -270.5t45.5 -209.5t45.5 -163t21 -144q0 -91 -58 -149.5t-161 -58.5t-161 58.5t-58 149.5zM203 963q0 72 52 123t124 51t123 -51t51 -123q0 -71 -51.5 -124t-122.5 -53q-72 0 -124 53t-52 124z" />
<glyph unicode="&#xa2;" d="M74 567q0 172 87.5 298.5t248.5 193.5v188h188v-162q91 -10 168.5 -59t130.5 -127l-252 -231q-8 15 -30 64t-39 83.5t-47 65t-62 30.5q-105 0 -105 -141q0 -51 15.5 -109.5t43.5 -112.5t75 -90t102 -36q135 0 209 115l92 -84q-127 -222 -301 -275v-209h-188v195 q-153 20 -244.5 133.5t-91.5 269.5z" />
<glyph unicode="&#xa3;" d="M121 225q92 62 123 129.5t28 186.5h-137v159h88q-67 85 -67 201q0 78 43.5 145t110 110t144 67t148.5 24q109 0 206 -49.5t171 -136.5l-285 -232q-51 135 -84 187q-44 71 -86 71q-37 0 -60.5 -17.5t-23.5 -53.5q0 -45 74.5 -167.5t83.5 -148.5h225v-159h-205 q-38 -178 -163 -269v-2h280q62 0 81.5 20.5t27.5 84.5h117l-31 -426h-119v51h-629z" />
<glyph unicode="&#xa4;" d="M16 311l119 119q-44 51 -69 126t-25 159q0 88 24 166.5t70 122.5l-119 118l129 129l117 -116q46 40 126.5 65t166.5 25q81 0 156.5 -24.5t115.5 -61.5l119 118l139 -139l-114 -114q40 -43 64 -121.5t24 -163.5q0 -84 -24.5 -162t-67.5 -131l114 -115l-123 -123l-118 119 q-45 -45 -123 -71.5t-164 -26.5q-89 0 -167.5 25t-127.5 69l-117 -117zM279 715q0 -117 79.5 -199t194.5 -82q114 0 191 84t77 201q0 114 -77 197t-189 83q-118 0 -197 -82.5t-79 -201.5z" />
<glyph unicode="&#xa5;" d="M-41 1094v123h573v-123h-139l271 -389l208 389h-122v123h368v-123l-55 -2l-139 -254h133v-123h-201l-76 -135h277v-123h-279v-334h74v-123h-551v123h76v334h-336v123h307l-88 135h-219v123h143l-178 256h-47z" />
<glyph unicode="&#xa6;" horiz-adv-x="454" d="M106 -358v716h242v-716h-242zM106 666v716h242v-716h-242z" />
<glyph unicode="&#xa7;" horiz-adv-x="1024" d="M59 489q0 168 191 328q-79 38 -114.5 94.5t-35.5 143.5q0 166 119 271.5t291 105.5q27 0 54 -2.5t45.5 -5t48 -10t43 -11t49.5 -14.5t49 -15l26 66l117 -37l-115 -324q-205 193 -393 193q-48 0 -80 -22t-32 -68q0 -29 22 -49t59 -33t85.5 -23t102 -21.5t106.5 -26 t101.5 -39.5t85.5 -58.5t59 -86.5t22 -120q0 -185 -179 -313q148 -83 148 -244q0 -173 -122.5 -280t-297.5 -107q-80 0 -141 17t-133 57l-25 -88l-119 34l113 336q74 -71 190.5 -133.5t200.5 -62.5q49 0 81 19t32 63q0 32 -28 56t-74 37.5t-105 28.5t-120 29t-120 39.5 t-105 59t-74 89t-28 127.5zM270 641q0 -27 12 -48t28.5 -34t43.5 -24t47.5 -16t50.5 -12t44 -11q85 -23 172 -41q27 0 56.5 49t29.5 96q0 25 -21 46.5t-59 37t-69.5 25.5t-74.5 20t-51 12q-12 4 -55.5 16t-65.5 19q-88 -68 -88 -135z" />
<glyph unicode="&#xa8;" horiz-adv-x="681" d="M6 1298q0 59 39.5 98.5t97.5 39.5q57 0 97.5 -40.5t40.5 -97.5q0 -58 -40.5 -97.5t-97.5 -39.5q-60 0 -98.5 39t-38.5 98zM401 1298q0 58 39.5 98t98.5 40q57 0 97 -40.5t40 -97.5q0 -58 -40 -97.5t-97 -39.5q-60 0 -99 39t-39 98z" />
<glyph unicode="&#xa9;" horiz-adv-x="1638" d="M102 698q0 206 91.5 373.5t256 264t369.5 96.5t369.5 -96.5t256 -264t91.5 -373.5q0 -207 -92 -374t-256 -262t-369 -95t-369 95t-256 262t-92 374zM289 698q0 -167 66 -303.5t188 -216.5t276 -80t276 80t188.5 216.5t66.5 303.5q0 166 -66.5 303.5t-188.5 218t-276 80.5 t-276 -81t-188 -218t-66 -303zM410 723q0 57 12.5 110.5t45 109.5t83.5 97t135 67t191 26q47 0 91 -7.5t59 -12t58 -19.5q48 -15 48 -45v-148h-50q-65 176 -200 176q-101 0 -150 -90t-51 -252q-1 -84 7.5 -148t29.5 -118t61 -82.5t97 -28.5q74 0 136.5 51t104.5 140h49 l-30 -160q-1 -4 -2 -7t-3.5 -6t-4.5 -5t-6.5 -4.5t-7 -4t-8.5 -4t-9.5 -4t-11 -4.5t-11.5 -4q-133 -43 -215 -43q-214 0 -331 109.5t-117 310.5z" />
<glyph unicode="&#xaa;" horiz-adv-x="704" d="M10 977q0 104 61 163.5t154 59.5h183v31q0 39 -22.5 60.5t-66.5 21.5q-55 0 -86 -14.5t-61 -49.5l-82 29l84 182l80 -24l-12 -33q82 29 161 29q117 0 182.5 -50t65.5 -155v-344h43v-74h-268l-14 57q-96 -75 -189 -75t-153 50.5t-60 135.5zM254 1022q0 -102 80 -102 q74 0 74 90v118h-39q-50 0 -82.5 -30t-32.5 -76z" />
<glyph unicode="&#xab;" horiz-adv-x="985" d="M80 504l215 401h194l-102 -401l107 -400h-195zM494 504l215 401h194l-102 -401l106 -400h-194z" />
<glyph unicode="&#xac;" horiz-adv-x="1228" d="M115 623v241h999v-639h-242v398h-757z" />
<glyph unicode="&#xad;" horiz-adv-x="681" d="M92 373v260h498v-260h-498z" />
<glyph unicode="&#xae;" horiz-adv-x="1638" d="M102 698q0 206 91.5 373.5t256 264t369.5 96.5t369.5 -96.5t256 -264t91.5 -373.5q0 -207 -92 -374t-256 -262t-369 -95t-369 95t-256 262t-92 374zM289 698q0 -167 66 -303.5t188 -216.5t276 -80t276 80t188.5 216.5t66.5 303.5q0 166 -66.5 303.5t-188.5 218t-276 80.5 t-276 -81t-188 -218t-66 -303zM473 326v43q61 3 73.5 16.5t12.5 58.5v545q0 24 -1.5 34t-9.5 21.5t-25.5 15.5t-49.5 5v43h428q103 0 164 -53t61 -156q0 -65 -41.5 -123.5t-113.5 -79.5l116 -174q68 -99 119 -166v-30h-205q-27 0 -59 55t-74 150t-67 137h-41v-224 q0 -45 12.5 -58.5t73.5 -16.5v-43h-373zM760 723h47q100 0 100 170q0 88 -21.5 124t-68.5 36h-57v-330z" />
<glyph unicode="&#xaf;" horiz-adv-x="681" d="M8 1184v170h668v-170h-668z" />
<glyph unicode="&#xb0;" horiz-adv-x="819" d="M117 954q0 123 85 208t208 85t207.5 -85t84.5 -208t-84.5 -207.5t-207.5 -84.5t-208 84.5t-85 207.5zM250 954q0 -77 42 -122.5t118 -45.5t117.5 45.5t41.5 122.5t-41.5 122.5t-117.5 45.5t-118 -45.5t-42 -122.5z" />
<glyph unicode="&#xb1;" horiz-adv-x="1228" d="M115 0v242h999v-242h-999zM115 541v241h381v224h241v-224h377v-241h-377v-224h-241v224h-381z" />
<glyph unicode="&#xb2;" horiz-adv-x="659" d="M20 975q0 82 50.5 145.5t127 95t162.5 31.5q107 0 193 -59.5t86 -155.5q0 -36 -13 -72.5t-40 -72t-52 -63.5t-66.5 -62t-64 -51t-63.5 -47l4 -2h121q76 0 84 57h78l-17 -248h-75l-3 29h-446l-18 100q317 191 317 391q0 56 -34 104t-91 48q-26 0 -52 -18.5t-26 -43.5 q0 -27 30.5 -53t57 -38t47.5 -19l-118 -191q-35 13 -63 28.5t-56.5 38.5t-44 55.5t-15.5 72.5z" />
<glyph unicode="&#xb3;" horiz-adv-x="659" d="M29 584l164 153q28 -37 47.5 -60t57.5 -50t71 -27q45 0 73.5 26t28.5 66q0 57 -74.5 99.5t-142.5 42.5q-12 0 -32.5 -3.5t-28.5 -3.5l-50 50l205 190h-59q-58 0 -92.5 -9.5t-65.5 -43.5l-74 24l101 236l73 -23l-8 -22h342l41 -88l-166 -154q85 -12 139 -69t54 -136 q0 -120 -96.5 -210.5t-231.5 -90.5q-79 0 -144 27.5t-132 75.5z" />
<glyph unicode="&#xb4;" horiz-adv-x="681" d="M57 1278l502 195l66 -244l-531 -90z" />
<glyph unicode="&#xb5;" horiz-adv-x="1290" d="M74 -195h71v1002l-71 -21v119l446 131v-674q0 -35 4 -60.5t15.5 -49.5t35 -36.5t58.5 -12.5q47 0 84 17.5t57 41.5v537l-76 -17v121l451 133v-913h68v-123h-418l-29 109q-57 -71 -114.5 -103.5t-135.5 -36.5v-286h-446v122z" />
<glyph unicode="&#xb6;" horiz-adv-x="1269" d="M139 1026q0 198 92 285.5t304 87.5h595v-49q-6 -1 -23.5 -4t-26 -4.5t-23 -5.5t-22 -8.5t-16 -11t-12 -16.5t-3.5 -22v-1514h-234v1539h-111v-1539h-233v859q-129 0 -208 112t-79 291z" />
<glyph unicode="&#xb7;" horiz-adv-x="548" d="M100 502q0 72 51 124t123 52t124.5 -52t52.5 -124t-52.5 -123t-124.5 -51t-123 51t-51 123z" />
<glyph unicode="&#xb8;" horiz-adv-x="681" d="M92 -418l21 125q35 -25 83 -40t91 -15q123 0 123 63q0 66 -109 66q-21 0 -57 -5t-47 -5l69 260h111l-39 -140q36 0 68.5 -3.5t67 -14.5t59.5 -28.5t41 -48t16 -70.5q0 -51 -22 -89.5t-60 -59t-81 -30.5t-91 -10q-131 0 -244 45z" />
<glyph unicode="&#xb9;" horiz-adv-x="659" d="M143 1024v78q42 14 130.5 58.5t115.5 68.5h88v-656h55v-73h-376v73h61v478z" />
<glyph unicode="&#xba;" horiz-adv-x="774" d="M10 1112q0 146 106.5 233t270.5 87t270.5 -87t106.5 -233q0 -147 -106.5 -234t-270.5 -87t-270.5 87t-106.5 234zM254 1184q0 -46 18 -113t57.5 -126.5t88.5 -59.5q58 0 80 41t22 112q0 46 -18 113t-57.5 126.5t-88.5 59.5q-58 0 -80 -41t-22 -112z" />
<glyph unicode="&#xbb;" horiz-adv-x="985" d="M78 905h194l220 -399l-216 -402h-194l102 402zM492 905h194l219 -399l-215 -402h-194l102 402z" />
<glyph unicode="&#xbc;" horiz-adv-x="1648" d="M111 1024v78q41 14 129.5 58.5t115.5 68.5h88v-656h56v-73h-377v73h61v478zM309 -31l856 1278h168l-858 -1278h-166zM883 156v96l387 477h151v-477l80 10l-22 -102h-58v-86h54v-74h-383v74h69v82h-278zM991 252h170v203h-4z" />
<glyph unicode="&#xbd;" horiz-adv-x="1648" d="M111 1024v78q41 14 129.5 58.5t115.5 68.5h88v-656h56v-73h-377v73h61v478zM254 -31l856 1278h168l-858 -1278h-166zM920 475q0 82 50.5 146t127 95.5t162.5 31.5q107 0 192.5 -60t85.5 -156q0 -36 -13 -72.5t-40 -72t-52 -63.5t-66.5 -62t-64 -51t-63.5 -47l4 -2h121 q76 0 84 57h78l-17 -248h-75l-2 29h-447l-18 100q317 191 317 392q0 56 -34 103.5t-91 47.5q-26 0 -41.5 -18t-15.5 -43q0 -39 44 -70.5t91 -40.5l-119 -190q-198 60 -198 194z" />
<glyph unicode="&#xbe;" horiz-adv-x="1648" d="M55 584l164 153q28 -37 47.5 -60t57.5 -50t71 -27q45 0 74 26t29 66q0 57 -74.5 99.5t-142.5 42.5q-12 0 -33 -3.5t-29 -3.5l-49 50l205 190h-60q-57 0 -91.5 -9.5t-65.5 -43.5l-74 24l100 236l74 -23l-8 -22h342l41 -88l-166 -154q85 -12 138.5 -69t53.5 -136 q0 -120 -96 -210.5t-231 -90.5q-132 0 -277 103zM340 -31l856 1278h168l-858 -1278h-166zM883 156v96l389 477h149v-477l80 10l-22 -102h-58v-86h54v-74h-383v74h69v82h-278zM993 252h168v203h-4z" />
<glyph unicode="&#xbf;" horiz-adv-x="1062" d="M82 59q0 52 13.5 94t43.5 77.5t54.5 57t68.5 55.5l12 9q46 35 73.5 60t59.5 65t47 89.5t15 111.5h227q1 -161 -28 -253t-80 -157q-10 -12 -33 -39t-32.5 -40.5t-23 -38t-19 -52t-5.5 -61.5q0 -24 3 -46.5t11 -50t27 -44.5t47 -17q42 0 63 26.5t21 71.5q0 91 -61 187 l340 145q55 -104 55 -229q0 -93 -41.5 -170t-110 -125.5t-153 -75t-174.5 -26.5q-190 0 -305 97t-115 279zM395 963q0 72 52 123t124 51t123 -51t51 -123q0 -71 -51.5 -124t-122.5 -53q-72 0 -124 53t-52 124z" />
<glyph unicode="&#xc0;" horiz-adv-x="1441" d="M16 0v160h82l424 1239h391l437 -1239h77v-160h-643v160h111l-61 174h-463l-62 -174h119v-160h-412zM434 522h336l-170 482h-4zM438 1585l66 244l502 -195l-37 -139z" />
<glyph unicode="&#xc1;" horiz-adv-x="1441" d="M16 0v160h82l424 1239h391l437 -1239h77v-160h-643v160h111l-61 174h-463l-62 -174h119v-160h-412zM434 522h336l-170 482h-4zM438 1634l502 195l66 -244l-531 -90z" />
<glyph unicode="&#xc2;" horiz-adv-x="1441" d="M16 0v160h82l424 1239h391l437 -1239h77v-160h-643v160h111l-61 174h-463l-62 -174h119v-160h-412zM326 1636l403 174l387 -172l-41 -143l-348 98l-362 -94zM434 522h336l-170 482h-4z" />
<glyph unicode="&#xc3;" horiz-adv-x="1441" d="M16 0v160h82l424 1239h391l437 -1239h77v-160h-643v160h111l-61 174h-463l-62 -174h119v-160h-412zM344 1556q14 30 18 37.5t18.5 35t21 37t21.5 31.5t26 31t28.5 23.5t33.5 20.5t37 11t44 5q40 0 135 -31q89 -33 141 -33q47 0 66.5 16.5t44.5 63.5l119 -57 q-6 -11 -22.5 -43.5t-23 -44t-23 -38t-27 -37t-29.5 -28t-37 -24.5t-43 -13t-53 -6q-36 0 -133 29q-124 41 -136 43q-26 6 -45.5 -7t-42.5 -45t-28 -38zM434 522h336l-170 482h-4z" />
<glyph unicode="&#xc4;" horiz-adv-x="1441" d="M16 0v160h82l424 1239h391l437 -1239h77v-160h-643v160h111l-61 174h-463l-62 -174h119v-160h-412zM387 1655q0 59 39.5 98t97.5 39q57 0 97.5 -40t40.5 -97q0 -58 -40.5 -97.5t-97.5 -39.5q-60 0 -98.5 39t-38.5 98zM434 522h336l-170 482h-4zM782 1655q0 58 39.5 97.5 t98.5 39.5q57 0 97 -40t40 -97q0 -58 -40 -97.5t-97 -39.5q-60 0 -99 39t-39 98z" />
<glyph unicode="&#xc5;" horiz-adv-x="1441" d="M16 0v160h82l424 1239h391l437 -1239h77v-160h-643v160h111l-61 174h-463l-62 -174h119v-160h-412zM434 522h336l-170 482h-4zM494 1704q0 97 66.5 162t162.5 65t162.5 -65t66.5 -162t-66.5 -162t-162.5 -65t-162.5 65t-66.5 162zM641 1704q0 -31 23.5 -55.5t58.5 -24.5 t58.5 24.5t23.5 55.5t-23.5 55.5t-58.5 24.5t-58.5 -24.5t-23.5 -55.5z" />
<glyph unicode="&#xc6;" horiz-adv-x="1896" d="M-78 0v160h88l623 1079h-129v160h1265v-291h-147v70q-113 61 -246 61h-123v-324h369v103h147v-381h-147v90h-369v-567h66q71 0 122 8.5t94 30t65 63t22 103.5h147v-365h-1028v160h95v209h-478l-120 -209h118v-160h-434zM453 557h383v682h-5z" />
<glyph unicode="&#xc7;" horiz-adv-x="1366" d="M37 627q0 170 61 320.5t164 256t242.5 167t292.5 61.5q89 0 164.5 -37.5t166.5 -108.5l64 43l96 -119l-450 -360l-84 104q22 17 35.5 47.5t13.5 59.5q0 77 -37 126.5t-111 49.5q-53 0 -90 -30t-54.5 -80t-24.5 -96.5t-7 -96.5q0 -147 34.5 -272.5t92 -207.5t131 -127.5 t152.5 -45.5q112 0 187.5 40.5t166.5 131.5l105 -105q-61 -85 -118.5 -147t-127.5 -113.5t-151 -80.5t-175 -36l-22 -80q36 0 68.5 -3.5t67 -14.5t59.5 -28.5t41 -48t16 -70.5q0 -51 -22 -89.5t-60 -59t-81 -30.5t-91 -10q-131 0 -244 45l20 125q35 -25 83 -40t91 -15 q123 0 123 63q0 66 -108 66q-21 0 -57.5 -5t-47.5 -5l54 200q-102 4 -193.5 30.5t-172 79.5t-138.5 128t-91.5 182t-33.5 236z" />
<glyph unicode="&#xc8;" horiz-adv-x="1251" d="M72 0v160h94v1079h-94v160h1052v-291h-147v70q-113 61 -246 61h-123v-324h369v103h147v-381h-147v90h-369v-567h66q71 0 122 8.5t94 30t65 63t22 103.5h147v-365h-1052zM342 1585l66 244l501 -195l-37 -139z" />
<glyph unicode="&#xc9;" horiz-adv-x="1251" d="M72 0v160h94v1079h-94v160h1052v-291h-147v70q-113 61 -246 61h-123v-324h369v103h147v-381h-147v90h-369v-567h66q71 0 122 8.5t94 30t65 63t22 103.5h147v-365h-1052zM342 1634l502 195l65 -244l-530 -90z" />
<glyph unicode="&#xca;" horiz-adv-x="1251" d="M72 0v160h94v1079h-94v160h1052v-291h-147v70q-113 61 -246 61h-123v-324h369v103h147v-381h-147v90h-369v-567h66q71 0 122 8.5t94 30t65 63t22 103.5h147v-365h-1052zM229 1636l404 174l387 -172l-41 -143l-348 98l-363 -94z" />
<glyph unicode="&#xcb;" horiz-adv-x="1251" d="M72 0v160h94v1079h-94v160h1052v-291h-147v70q-113 61 -246 61h-123v-324h369v103h147v-381h-147v90h-369v-567h66q71 0 122 8.5t94 30t65 63t22 103.5h147v-365h-1052zM291 1655q0 59 39.5 98t97.5 39q57 0 97 -40t40 -97q0 -58 -40 -97.5t-97 -39.5q-60 0 -98.5 39 t-38.5 98zM686 1655q0 59 39 98t98 39q57 0 97.5 -40t40.5 -97q0 -58 -40.5 -97.5t-97.5 -39.5q-60 0 -98.5 39t-38.5 98z" />
<glyph unicode="&#xcc;" horiz-adv-x="796" d="M88 0v160h86v1079h-86v160h621v-160h-93v-1079h93v-160h-621zM115 1585l65 244l502 -195l-37 -139z" />
<glyph unicode="&#xcd;" horiz-adv-x="796" d="M88 0v160h86v1079h-86v160h621v-160h-93v-1079h93v-160h-621zM115 1634l501 195l66 -244l-530 -90z" />
<glyph unicode="&#xce;" horiz-adv-x="796" d="M2 1636l404 174l387 -172l-41 -143l-349 98l-362 -94zM88 0v160h86v1079h-86v160h621v-160h-93v-1079h93v-160h-621z" />
<glyph unicode="&#xcf;" horiz-adv-x="796" d="M63 1655q0 58 39.5 97.5t98.5 39.5q57 0 97 -40t40 -97q0 -58 -40 -97.5t-97 -39.5q-60 0 -99 39t-39 98zM88 0v160h86v1079h-86v160h621v-160h-93v-1079h93v-160h-621zM459 1655q0 59 39.5 98t97.5 39q57 0 97 -40t40 -97q0 -58 -40 -97.5t-97 -39.5q-60 0 -98.5 39 t-38.5 98z" />
<glyph unicode="&#xd0;" horiz-adv-x="1478" d="M66 0v160h104v559h-104v164h104v356h-94v160h583q218 0 384 -80t261 -239.5t95 -377.5q0 -343 -194.5 -522.5t-536.5 -179.5h-602zM612 160q72 0 128.5 24t93 67.5t61.5 96t38 118t18 123t5 122.5q0 63 -3.5 115.5t-13 108t-25.5 99t-42.5 83t-62 65.5t-85.5 41.5 t-112 15.5v-356h170v-164h-170v-559z" />
<glyph unicode="&#xd1;" horiz-adv-x="1441" d="M96 0v160h84v1079h-84v160h467l492 -690h4v530h-105v160h408v-160h-94v-1239h-267l-608 913h-4v-753h119v-160h-412zM344 1556q14 30 18 37.5t18.5 35t21 37t21.5 31.5t26 31t28.5 23.5t33.5 20.5t37 11t44 5q40 0 135 -31q89 -33 141 -33q47 0 66.5 16.5t44.5 63.5 l119 -57q-6 -11 -22.5 -43.5t-23 -44t-23 -38t-27 -37t-29.5 -28t-37 -24.5t-43 -13t-53 -6q-36 0 -133 29q-124 41 -136 43q-26 6 -45.5 -7t-42.5 -45t-28 -38z" />
<glyph unicode="&#xd2;" horiz-adv-x="1593" d="M72 688q0 125 30.5 237t93 204.5t150.5 160t209 105t264 37.5q153 0 284.5 -55t223 -150.5t143.5 -229t52 -286.5q0 -157 -49.5 -292t-142 -236t-235.5 -158.5t-321 -57.5q-204 0 -365 94t-249 258.5t-88 368.5zM514 883q0 -124 27.5 -252t74 -232.5t115.5 -170.5 t146 -66q73 0 115 28.5t64.5 106.5t22.5 219q0 168 -45 332.5t-130 276.5t-187 112q-73 0 -115.5 -28.5t-65 -106.5t-22.5 -219zM514 1585l66 244l501 -195l-37 -139z" />
<glyph unicode="&#xd3;" horiz-adv-x="1593" d="M72 688q0 125 30.5 237t93 204.5t150.5 160t209 105t264 37.5q153 0 284.5 -55t223 -150.5t143.5 -229t52 -286.5q0 -157 -49.5 -292t-142 -236t-235.5 -158.5t-321 -57.5q-204 0 -365 94t-249 258.5t-88 368.5zM514 883q0 -124 27.5 -252t74 -232.5t115.5 -170.5 t146 -66q73 0 115 28.5t64.5 106.5t22.5 219q0 168 -45 332.5t-130 276.5t-187 112q-73 0 -115.5 -28.5t-65 -106.5t-22.5 -219zM514 1634l502 195l65 -244l-530 -90z" />
<glyph unicode="&#xd4;" horiz-adv-x="1593" d="M72 688q0 125 30.5 237t93 204.5t150.5 160t209 105t264 37.5q153 0 284.5 -55t223 -150.5t143.5 -229t52 -286.5q0 -157 -49.5 -292t-142 -236t-235.5 -158.5t-321 -57.5q-204 0 -365 94t-249 258.5t-88 368.5zM401 1636l404 174l387 -172l-41 -143l-348 98l-363 -94z M514 883q0 -124 27.5 -252t74 -232.5t115.5 -170.5t146 -66q73 0 115 28.5t64.5 106.5t22.5 219q0 168 -45 332.5t-130 276.5t-187 112q-73 0 -115.5 -28.5t-65 -106.5t-22.5 -219z" />
<glyph unicode="&#xd5;" horiz-adv-x="1593" d="M72 688q0 125 30.5 237t93 204.5t150.5 160t209 105t264 37.5q153 0 284.5 -55t223 -150.5t143.5 -229t52 -286.5q0 -157 -49.5 -292t-142 -236t-235.5 -158.5t-321 -57.5q-204 0 -365 94t-249 258.5t-88 368.5zM420 1556q14 30 18 37.5t18.5 35t21 37t21.5 31.5t26 31 t28.5 23.5t33.5 20.5t37 11t44 5q40 0 135 -31q89 -33 141 -33q47 0 66.5 16.5t44.5 63.5l119 -57q-5 -10 -22.5 -43.5t-23.5 -44t-22.5 -37.5t-27 -37.5t-30 -28t-37.5 -24.5t-43 -13t-53 -6q-36 0 -133 29q-15 5 -45 15.5t-51.5 17t-38.5 10.5q-20 5 -38.5 -4t-29.5 -22.5 t-26 -34.5t-23 -29zM514 883q0 -124 27.5 -252t74 -232.5t115.5 -170.5t146 -66q73 0 115 28.5t64.5 106.5t22.5 219q0 168 -45 332.5t-130 276.5t-187 112q-73 0 -115.5 -28.5t-65 -106.5t-22.5 -219z" />
<glyph unicode="&#xd6;" horiz-adv-x="1593" d="M72 688q0 125 30.5 237t93 204.5t150.5 160t209 105t264 37.5q153 0 284.5 -55t223 -150.5t143.5 -229t52 -286.5q0 -157 -49.5 -292t-142 -236t-235.5 -158.5t-321 -57.5q-204 0 -365 94t-249 258.5t-88 368.5zM463 1655q0 59 39.5 98t97.5 39q57 0 97 -40t40 -97 q0 -58 -40 -97.5t-97 -39.5q-60 0 -98.5 39t-38.5 98zM514 883q0 -124 27.5 -252t74 -232.5t115.5 -170.5t146 -66q73 0 115 28.5t64.5 106.5t22.5 219q0 168 -45 332.5t-130 276.5t-187 112q-73 0 -115.5 -28.5t-65 -106.5t-22.5 -219zM858 1655q0 59 39 98t98 39 q57 0 97.5 -40t40.5 -97q0 -58 -40.5 -97.5t-97.5 -39.5q-60 0 -98.5 39t-38.5 98z" />
<glyph unicode="&#xd7;" horiz-adv-x="1228" d="M115 172l329 330l-329 332l170 172l329 -332l328 332l172 -172l-330 -332l330 -330l-172 -172l-328 332l-327 -332z" />
<glyph unicode="&#xd8;" horiz-adv-x="1593" d="M16 -117l244 297q-188 204 -188 508q0 125 30.5 237t93 204.5t150.5 160t209 105t264 37.5q216 0 381 -105l129 158h248l-231 -283q176 -195 176 -491q0 -157 -49.5 -292t-142 -236t-235.5 -158.5t-321 -57.5q-201 0 -360 92l-144 -176h-254zM514 883q0 -180 49 -334 l398 485q-48 94 -110.5 148.5t-133.5 54.5q-73 0 -115.5 -28.5t-65 -106.5t-22.5 -219zM645 344q47 -86 106.5 -134t125.5 -48q73 0 115 28.5t64.5 106.5t22.5 219q0 160 -41 309z" />
<glyph unicode="&#xd9;" horiz-adv-x="1593" d="M88 1239v160h537v-967q0 -124 36.5 -173.5t135.5 -49.5q100 0 137 49.5t37 173.5v807h-90v160h532v-1239h92v-160h-501l-31 109q-37 -54 -149.5 -98t-235.5 -44q-406 0 -406 471v801h-94zM539 1585l65 244l502 -195l-37 -139z" />
<glyph unicode="&#xda;" horiz-adv-x="1593" d="M88 1239v160h537v-967q0 -124 36.5 -173.5t135.5 -49.5q100 0 137 49.5t37 173.5v807h-90v160h532v-1239h92v-160h-501l-31 109q-37 -54 -149.5 -98t-235.5 -44q-406 0 -406 471v801h-94zM539 1634l501 195l66 -244l-531 -90z" />
<glyph unicode="&#xdb;" horiz-adv-x="1593" d="M88 1239v160h537v-967q0 -124 36.5 -173.5t135.5 -49.5q100 0 137 49.5t37 173.5v807h-90v160h532v-1239h92v-160h-501l-31 109q-37 -54 -149.5 -98t-235.5 -44q-406 0 -406 471v801h-94zM426 1636l403 174l388 -172l-41 -143l-349 98l-362 -94z" />
<glyph unicode="&#xdc;" horiz-adv-x="1593" d="M88 1239v160h537v-967q0 -124 36.5 -173.5t135.5 -49.5q100 0 137 49.5t37 173.5v807h-90v160h532v-1239h92v-160h-501l-31 109q-37 -54 -149.5 -98t-235.5 -44q-406 0 -406 471v801h-94zM487 1655q0 58 39.5 97.5t98.5 39.5q57 0 97 -40t40 -97q0 -58 -40 -97.5 t-97 -39.5q-60 0 -99 39t-39 98zM883 1655q0 59 39.5 98t97.5 39q57 0 97 -40t40 -97q0 -58 -40 -97.5t-97 -39.5q-60 0 -98.5 39t-38.5 98z" />
<glyph unicode="&#xdd;" horiz-adv-x="1327" d="M10 1239v160h682v-160h-110l223 -381l223 381h-131v160h422v-160h-70l-565 -971l4 -4q22 19 52.5 27.5t86.5 9.5q30 1 76.5 -8.5t59.5 -9.5q30 0 53 18.5t61 67.5l94 -15l-92 -362q-105 -25 -176 -25q-68 0 -165 19.5t-146 19.5q-70 0 -176 -35l-88 76l243 399l-497 793 h-64zM381 1634l502 195l65 -244l-530 -90z" />
<glyph unicode="&#xde;" horiz-adv-x="1441" d="M92 0v160h86v1079h-86v160h621v-160h-92v-113h41q677 0 677 -383q0 -76 -29.5 -137t-81 -101t-123.5 -66.5t-153 -38t-174 -11.5q-56 0 -157 8v-237h92v-160h-621zM621 553q35 -41 133 -41q184 0 184 219q0 50 -17.5 94t-53 81t-99 60t-147.5 25v-438z" />
<glyph unicode="&#xdf;" horiz-adv-x="1366" d="M55 805l72 160h51v57q0 94 43.5 173t116 130t163.5 79t189 28q48 0 94.5 -5t98 -16t94.5 -31.5t78 -50t55 -73.5t20 -99q0 -61 -22 -100t-61 -76q-6 -5 -24 -21.5t-24.5 -23.5t-17 -20.5t-14.5 -26t-4 -27.5q0 -19 9 -35.5t28.5 -32.5t38 -28t49.5 -31t51 -33 q79 -56 126.5 -134t47.5 -206q0 -93 -34.5 -169.5t-91.5 -124.5t-127.5 -74.5t-144.5 -26.5q-30 0 -56.5 2.5t-52.5 8t-40.5 9t-41.5 11.5t-34 10v354q34 -42 88.5 -81t95.5 -39q44 0 72.5 29t28.5 75q0 14 -2.5 26.5t-9 25t-11.5 22t-17.5 22.5t-19 19.5t-23.5 20t-24 18.5 t-27 20t-26 19q-76 56 -118 111t-42 134q0 54 20.5 98.5t59.5 98.5q27 37 40.5 59t26.5 58.5t13 72.5q0 101 -125 101q-137 0 -137 -131v-1141h-447v123h72v682h-123z" />
<glyph unicode="&#xe0;" horiz-adv-x="1175" d="M68 281q0 173 93.5 272.5t235.5 99.5h281v52q0 64 -34.5 99.5t-100.5 35.5q-19 0 -36.5 -2.5t-34 -9.5t-28.5 -12.5t-27 -18.5t-23 -19t-22.5 -23.5t-19 -23t-19.5 -26t-18 -23.5l-127 47l131 356l123 -41l-18 -55q108 47 248 47q180 0 280.5 -82.5t100.5 -257.5v-573h65 v-123h-411l-23 96q-148 -127 -291 -127q-142 0 -233.5 86t-91.5 226zM330 1229l65 244l502 -195l-37 -139zM442 354q0 -170 123 -170q34 0 57 12t35 34t16.5 47t4.5 57v196h-60q-77 0 -126.5 -49t-49.5 -127z" />
<glyph unicode="&#xe1;" horiz-adv-x="1175" d="M68 281q0 173 93.5 272.5t235.5 99.5h281v52q0 64 -34.5 99.5t-100.5 35.5q-19 0 -36.5 -2.5t-34 -9.5t-28.5 -12.5t-27 -18.5t-23 -19t-22.5 -23.5t-19 -23t-19.5 -26t-18 -23.5l-127 47l131 356l123 -41l-18 -55q108 47 248 47q180 0 280.5 -82.5t100.5 -257.5v-573h65 v-123h-411l-23 96q-148 -127 -291 -127q-142 0 -233.5 86t-91.5 226zM330 1278l501 195l66 -244l-530 -90zM442 354q0 -170 123 -170q34 0 57 12t35 34t16.5 47t4.5 57v196h-60q-77 0 -126.5 -49t-49.5 -127z" />
<glyph unicode="&#xe2;" horiz-adv-x="1175" d="M68 281q0 173 93.5 272.5t235.5 99.5h281v52q0 64 -34.5 99.5t-100.5 35.5q-19 0 -36.5 -2.5t-34 -9.5t-28.5 -12.5t-27 -18.5t-23 -19t-22.5 -23.5t-19 -23t-19.5 -26t-18 -23.5l-127 47l131 356l123 -41l-18 -55q108 47 248 47q180 0 280.5 -82.5t100.5 -257.5v-573h65 v-123h-411l-23 96q-148 -127 -291 -127q-142 0 -233.5 86t-91.5 226zM217 1280l404 174l387 -172l-41 -143l-349 98l-362 -94zM442 354q0 -170 123 -170q34 0 57 12t35 34t16.5 47t4.5 57v196h-60q-77 0 -126.5 -49t-49.5 -127z" />
<glyph unicode="&#xe3;" horiz-adv-x="1175" d="M68 281q0 173 93.5 272.5t235.5 99.5h281v52q0 64 -34.5 99.5t-100.5 35.5q-19 0 -36.5 -2.5t-34 -9.5t-28.5 -12.5t-27 -18.5t-23 -19t-22.5 -23.5t-19 -23t-19.5 -26t-18 -23.5l-127 47l131 356l123 -41l-18 -55q108 47 248 47q180 0 280.5 -82.5t100.5 -257.5v-573h65 v-123h-411l-23 96q-148 -127 -291 -127q-142 0 -233.5 86t-91.5 226zM236 1200q54 111 86 151q66 81 161 81q40 0 135 -31q89 -33 142 -33q47 0 66 16t44 64l119 -57q-6 -11 -22.5 -43.5t-23 -44t-23 -38t-27 -37t-29.5 -28t-37 -24.5t-43 -13t-53 -6q-36 0 -133 29 q-15 5 -45 15.5t-51.5 17t-38.5 10.5q-20 5 -38.5 -4t-29.5 -22.5t-26 -34.5t-23 -29zM442 354q0 -170 123 -170q34 0 57 12t35 34t16.5 47t4.5 57v196h-60q-77 0 -126.5 -49t-49.5 -127z" />
<glyph unicode="&#xe4;" horiz-adv-x="1175" d="M68 281q0 173 93.5 272.5t235.5 99.5h281v52q0 64 -34.5 99.5t-100.5 35.5q-19 0 -36.5 -2.5t-34 -9.5t-28.5 -12.5t-27 -18.5t-23 -19t-22.5 -23.5t-19 -23t-19.5 -26t-18 -23.5l-127 47l131 356l123 -41l-18 -55q108 47 248 47q180 0 280.5 -82.5t100.5 -257.5v-573h65 v-123h-411l-23 96q-148 -127 -291 -127q-142 0 -233.5 86t-91.5 226zM279 1298q0 59 39.5 98.5t97.5 39.5q57 0 97 -40.5t40 -97.5q0 -58 -40 -97.5t-97 -39.5q-60 0 -98.5 39t-38.5 98zM442 354q0 -170 123 -170q34 0 57 12t35 34t16.5 47t4.5 57v196h-60q-77 0 -126.5 -49 t-49.5 -127zM674 1298q0 59 39.5 98.5t97.5 39.5q57 0 97 -40.5t40 -97.5q0 -58 -40 -97.5t-97 -39.5q-60 0 -98.5 39t-38.5 98z" />
<glyph unicode="&#xe5;" horiz-adv-x="1175" d="M68 281q0 173 93.5 272.5t235.5 99.5h281v52q0 64 -34.5 99.5t-100.5 35.5q-19 0 -36.5 -2.5t-34 -9.5t-28.5 -12.5t-27 -18.5t-23 -19t-22.5 -23.5t-19 -23t-19.5 -26t-18 -23.5l-127 47l131 356l123 -41l-18 -55q108 47 248 47q180 0 280.5 -82.5t100.5 -257.5v-573h65 v-123h-411l-23 96q-148 -127 -291 -127q-142 0 -233.5 86t-91.5 226zM385 1348q0 97 66.5 162t162.5 65t163 -65t67 -162t-67 -162.5t-163 -65.5t-162.5 65.5t-66.5 162.5zM442 354q0 -170 123 -170q34 0 57 12t35 34t16.5 47t4.5 57v196h-60q-77 0 -126.5 -49t-49.5 -127z M532 1348q0 -31 23.5 -55.5t58.5 -24.5t58.5 24.5t23.5 55.5t-23.5 55t-58.5 24t-58.5 -24t-23.5 -55z" />
<glyph unicode="&#xe6;" horiz-adv-x="1669" d="M20 281q0 173 94 272.5t236 99.5h281v52q0 64 -34.5 99.5t-100.5 35.5q-19 0 -36.5 -2.5t-34 -9.5t-28.5 -12.5t-27 -18.5t-23 -19t-22.5 -23.5t-19 -23t-19.5 -26t-18 -23.5l-127 47l131 356l123 -41l-18 -55q108 47 248 47q96 0 147.5 -23t99.5 -69q50 48 120.5 70 t125.5 22q97 0 178.5 -33.5t141 -94.5t102 -139t70.5 -175l-582 -213q77 -191 258 -191q171 0 250 99l78 -84q-61 -115 -189.5 -175.5t-285.5 -60.5q-116 0 -219 40t-172 120q-103 -80 -195.5 -120t-206.5 -40q-142 0 -234 86t-92 226zM395 354q0 -170 123 -170q34 0 57 12 t35 34t16.5 47t4.5 57v196h-60q-77 0 -126.5 -49t-49.5 -127zM950 711q0 -27 5 -57.5t16.5 -77t13.5 -54.5l264 101q-7 14 -21.5 51t-27.5 64.5t-32 58t-43.5 47t-53.5 16.5q-63 0 -92 -42.5t-29 -106.5z" />
<glyph unicode="&#xe7;" horiz-adv-x="1024" d="M51 459q0 120 47 228t124 184t178 120.5t206 44.5q125 0 211.5 -53t169.5 -162l-295 -278q-12 45 -28 88.5t-42.5 96t-63.5 84.5t-79 32q-100 0 -100 -182q0 -67 15 -133t45 -127.5t84.5 -99.5t125.5 -38q136 0 252 133l88 -84q-64 -136 -171 -229t-243 -109l-22 -84 q36 0 68.5 -3.5t67 -14.5t59.5 -28.5t41 -48t16 -70.5q0 -51 -22 -89.5t-60 -59t-81 -30.5t-91 -10q-131 0 -244 45l21 125q35 -25 83 -40t91 -15q123 0 123 63q0 66 -109 66q-21 0 -57 -5t-47 -5l53 204q-189 17 -301.5 151.5t-112.5 332.5z" />
<glyph unicode="&#xe8;" d="M53 512q0 141 65 261t181.5 191.5t257.5 71.5q197 0 320.5 -116t181.5 -316l-582 -213q72 -180 258 -180q163 0 250 108l78 -83q-201 -267 -510 -267q-230 0 -365 148.5t-135 394.5zM279 1229l65 244l502 -195l-37 -139zM381 731q0 -36 5.5 -67.5t16 -69.5t13.5 -51 l264 100q-10 31 -13.5 41.5t-16 43t-21 47t-24.5 39.5t-31 36.5t-36 21t-44 9.5q-57 0 -85 -41t-28 -109z" />
<glyph unicode="&#xe9;" d="M53 512q0 141 65 261t181.5 191.5t257.5 71.5q197 0 320.5 -116t181.5 -316l-582 -213q72 -180 258 -180q163 0 250 108l78 -83q-201 -267 -510 -267q-230 0 -365 148.5t-135 394.5zM279 1278l501 195l66 -244l-531 -90zM381 731q0 -36 5.5 -67.5t16 -69.5t13.5 -51 l264 100q-10 31 -13.5 41.5t-16 43t-21 47t-24.5 39.5t-31 36.5t-36 21t-44 9.5q-57 0 -85 -41t-28 -109z" />
<glyph unicode="&#xea;" d="M53 512q0 141 65 261t181.5 191.5t257.5 71.5q197 0 320.5 -116t181.5 -316l-582 -213q72 -180 258 -180q163 0 250 108l78 -83q-201 -267 -510 -267q-230 0 -365 148.5t-135 394.5zM166 1280l403 174l387 -172l-41 -143l-348 98l-362 -94zM381 731q0 -36 5.5 -67.5 t16 -69.5t13.5 -51l264 100q-10 31 -13.5 41.5t-16 43t-21 47t-24.5 39.5t-31 36.5t-36 21t-44 9.5q-57 0 -85 -41t-28 -109z" />
<glyph unicode="&#xeb;" d="M53 512q0 141 65 261t181.5 191.5t257.5 71.5q197 0 320.5 -116t181.5 -316l-582 -213q72 -180 258 -180q163 0 250 108l78 -83q-201 -267 -510 -267q-230 0 -365 148.5t-135 394.5zM227 1298q0 58 39.5 98t98.5 40q57 0 97 -40.5t40 -97.5q0 -58 -40 -97.5t-97 -39.5 q-60 0 -99 39t-39 98zM381 731q0 -36 5.5 -67.5t16 -69.5t13.5 -51l264 100q-10 31 -13.5 41.5t-16 43t-21 47t-24.5 39.5t-31 36.5t-36 21t-44 9.5q-57 0 -85 -41t-28 -109zM623 1298q0 59 39.5 98.5t97.5 39.5q57 0 97 -40.5t40 -97.5q0 -58 -40 -97.5t-97 -39.5 q-60 0 -98.5 39t-38.5 98z" />
<glyph unicode="&#xec;" horiz-adv-x="681" d="M57 1229l66 244l502 -195l-37 -139zM82 0v123h78v684l-74 -14v116l449 127v-913h67v-123h-520z" />
<glyph unicode="&#xed;" horiz-adv-x="681" d="M57 1278l502 195l66 -244l-531 -90zM82 0v123h78v684l-74 -14v116l449 127v-913h67v-123h-520z" />
<glyph unicode="&#xee;" horiz-adv-x="681" d="M-55 1280l403 174l387 -172l-41 -143l-348 98l-362 -94zM82 0v123h78v684l-74 -14v116l449 127v-913h67v-123h-520z" />
<glyph unicode="&#xef;" horiz-adv-x="681" d="M6 1298q0 59 39.5 98.5t97.5 39.5q57 0 97.5 -40.5t40.5 -97.5q0 -58 -40.5 -97.5t-97.5 -39.5q-60 0 -98.5 39t-38.5 98zM82 0v123h78v684l-74 -14v116l449 127v-913h67v-123h-520zM401 1298q0 58 39.5 98t98.5 40q57 0 97 -40.5t40 -97.5q0 -58 -40 -97.5t-97 -39.5 q-60 0 -99 39t-39 98z" />
<glyph unicode="&#xf0;" horiz-adv-x="1290" d="M98 457q0 145 73.5 257t194 170t265.5 58q29 0 41 -2q-40 130 -127 246l-230 -123l-65 96l213 115q-99 99 -236 147l27 68q199 -15 387 -119l250 133l65 -96l-200 -109q196 -138 319 -339.5t123 -415.5q0 -257 -147.5 -415.5t-401.5 -158.5q-242 0 -396.5 132.5 t-154.5 355.5zM459 594q0 -81 15.5 -163.5t44.5 -154t77 -116.5t106 -45q75 0 105.5 52.5t30.5 149.5q0 81 -16 163.5t-45 154.5t-77 117t-106 45q-75 0 -105 -52.5t-30 -150.5z" />
<glyph unicode="&#xf1;" horiz-adv-x="1327" d="M80 0v123h72v690l-72 -20v120l450 123v-166q53 41 82 62t77 50t95 41.5t97 12.5q74 0 130 -20t87 -49.5t50 -71t24.5 -76.5t5.5 -74v-622h69v-123h-522v123h78v577q0 42 -32.5 66.5t-76.5 24.5q-47 0 -84 -21t-84 -63v-584h80v-123h-526zM287 1200q14 30 18 37.5t18.5 35 t21 37t21.5 31.5t26 31t28.5 23.5t33.5 20.5t37 11t44 5q40 0 135 -31q89 -33 141 -33q47 0 66.5 16.5t44.5 63.5l118 -57q-6 -11 -22.5 -43.5t-23 -44t-23 -38t-27 -37t-29.5 -28t-37 -24.5t-43 -13t-53 -6q-36 0 -133 29q-15 5 -45 15.5t-51.5 17t-38.5 10.5 q-20 5 -38.5 -4t-29.5 -22.5t-26 -34.5t-23 -29z" />
<glyph unicode="&#xf2;" horiz-adv-x="1290" d="M68 504q0 242 163.5 387t413.5 145q164 0 295 -63.5t208 -185.5t77 -283q0 -162 -77 -285t-208 -186.5t-295 -63.5q-163 0 -293.5 63.5t-207 186.5t-76.5 285zM362 1229l66 244l502 -195l-37 -139zM442 649q0 -49 7.5 -111t27.5 -136.5t49.5 -135t77.5 -101t107 -40.5 q40 0 68.5 20t43 54.5t21 73t6.5 83.5q0 49 -7.5 111.5t-27.5 136.5t-49 134.5t-77 101.5t-107 41q-33 0 -58.5 -11t-40 -33t-23.5 -43t-12.5 -52t-4.5 -48.5t-1 -44.5z" />
<glyph unicode="&#xf3;" horiz-adv-x="1290" d="M68 504q0 242 163.5 387t413.5 145q164 0 295 -63.5t208 -185.5t77 -283q0 -162 -77 -285t-208 -186.5t-295 -63.5q-163 0 -293.5 63.5t-207 186.5t-76.5 285zM362 1278l502 195l66 -244l-531 -90zM442 649q0 -49 7.5 -111t27.5 -136.5t49.5 -135t77.5 -101t107 -40.5 q40 0 68.5 20t43 54.5t21 73t6.5 83.5q0 49 -7.5 111.5t-27.5 136.5t-49 134.5t-77 101.5t-107 41q-33 0 -58.5 -11t-40 -33t-23.5 -43t-12.5 -52t-4.5 -48.5t-1 -44.5z" />
<glyph unicode="&#xf4;" horiz-adv-x="1290" d="M68 504q0 242 163.5 387t413.5 145q164 0 295 -63.5t208 -185.5t77 -283q0 -162 -77 -285t-208 -186.5t-295 -63.5q-163 0 -293.5 63.5t-207 186.5t-76.5 285zM250 1280l403 174l387 -172l-41 -143l-348 98l-362 -94zM442 649q0 -49 7.5 -111t27.5 -136.5t49.5 -135 t77.5 -101t107 -40.5q40 0 68.5 20t43 54.5t21 73t6.5 83.5q0 49 -7.5 111.5t-27.5 136.5t-49 134.5t-77 101.5t-107 41q-33 0 -58.5 -11t-40 -33t-23.5 -43t-12.5 -52t-4.5 -48.5t-1 -44.5z" />
<glyph unicode="&#xf5;" horiz-adv-x="1290" d="M68 504q0 242 163.5 387t413.5 145q164 0 295 -63.5t208 -185.5t77 -283q0 -162 -77 -285t-208 -186.5t-295 -63.5q-163 0 -293.5 63.5t-207 186.5t-76.5 285zM268 1200q14 30 18 37.5t18.5 35t21 37t21.5 31.5t26 31t28.5 23.5t33.5 20.5t37 11t44 5q40 0 135 -31 q89 -33 142 -33q47 0 66 16t44 64l119 -57q-6 -11 -22.5 -43.5t-23 -44t-23 -38t-27 -37t-29.5 -28t-37 -24.5t-43 -13t-53 -6q-36 0 -133 29q-15 5 -45 15.5t-51.5 17t-38.5 10.5q-20 5 -38.5 -4t-29.5 -22.5t-26 -34.5t-23 -29zM442 649q0 -49 7.5 -111t27.5 -136.5 t49.5 -135t77.5 -101t107 -40.5q40 0 68.5 20t43 54.5t21 73t6.5 83.5q0 49 -7.5 111.5t-27.5 136.5t-49 134.5t-77 101.5t-107 41q-33 0 -58.5 -11t-40 -33t-23.5 -43t-12.5 -52t-4.5 -48.5t-1 -44.5z" />
<glyph unicode="&#xf6;" horiz-adv-x="1290" d="M68 504q0 242 163.5 387t413.5 145q164 0 295 -63.5t208 -185.5t77 -283q0 -162 -77 -285t-208 -186.5t-295 -63.5q-163 0 -293.5 63.5t-207 186.5t-76.5 285zM311 1298q0 58 39.5 98t98.5 40q57 0 97 -40.5t40 -97.5q0 -58 -40 -97.5t-97 -39.5q-60 0 -99 39t-39 98z M442 649q0 -49 7.5 -111t27.5 -136.5t49.5 -135t77.5 -101t107 -40.5q40 0 68.5 20t43 54.5t21 73t6.5 83.5q0 49 -7.5 111.5t-27.5 136.5t-49 134.5t-77 101.5t-107 41q-33 0 -58.5 -11t-40 -33t-23.5 -43t-12.5 -52t-4.5 -48.5t-1 -44.5zM707 1298q0 59 39.5 98.5 t97.5 39.5q57 0 97 -40.5t40 -97.5q0 -58 -40 -97.5t-97 -39.5q-60 0 -98.5 39t-38.5 98z" />
<glyph unicode="&#xf7;" horiz-adv-x="1228" d="M115 381v242h999v-242h-999zM461 156q0 64 45.5 108.5t109.5 44.5q62 0 108 -45t46 -108q0 -59 -46.5 -107.5t-105.5 -48.5q-64 0 -110.5 46.5t-46.5 109.5zM461 848q0 64 46 110t109 46q62 0 108 -46.5t46 -109.5q0 -59 -46.5 -106.5t-105.5 -47.5q-64 0 -110.5 45.5 t-46.5 108.5z" />
<glyph unicode="&#xf8;" horiz-adv-x="1290" d="M29 -115l192 242q-153 143 -153 379q0 166 78 288t207.5 182t293.5 60q146 0 262 -49l111 137h201l-172 -215q176 -142 176 -395q0 -251 -165.5 -398t-424.5 -147q-161 0 -285 68l-121 -152h-200zM442 625q0 -86 27 -189l272 340q-68 105 -159 105q-29 0 -51.5 -9.5 t-37 -23t-25 -37.5t-15.5 -43t-7.5 -49t-3 -47.5t-0.5 -46.5zM532 264q74 -139 162 -139q156 0 156 231q0 143 -37 258z" />
<glyph unicode="&#xf9;" horiz-adv-x="1290" d="M74 786v119l446 131v-674q0 -35 4 -60.5t15.5 -49.5t35 -36.5t58.5 -12.5q47 0 84 17.5t57 41.5v537l-76 -17v121l451 133v-913h68v-123h-418l-29 109q-76 -61 -163.5 -100.5t-170.5 -39.5q-148 0 -219.5 71t-71.5 214v553zM362 1229l66 244l502 -195l-37 -139z" />
<glyph unicode="&#xfa;" horiz-adv-x="1290" d="M74 786v119l446 131v-674q0 -35 4 -60.5t15.5 -49.5t35 -36.5t58.5 -12.5q47 0 84 17.5t57 41.5v537l-76 -17v121l451 133v-913h68v-123h-418l-29 109q-76 -61 -163.5 -100.5t-170.5 -39.5q-148 0 -219.5 71t-71.5 214v553zM362 1278l502 195l66 -244l-531 -90z" />
<glyph unicode="&#xfb;" horiz-adv-x="1290" d="M74 786v119l446 131v-674q0 -35 4 -60.5t15.5 -49.5t35 -36.5t58.5 -12.5q47 0 84 17.5t57 41.5v537l-76 -17v121l451 133v-913h68v-123h-418l-29 109q-76 -61 -163.5 -100.5t-170.5 -39.5q-148 0 -219.5 71t-71.5 214v553zM250 1280l403 174l387 -172l-41 -143l-348 98 l-362 -94z" />
<glyph unicode="&#xfc;" horiz-adv-x="1290" d="M74 786v119l446 131v-674q0 -35 4 -60.5t15.5 -49.5t35 -36.5t58.5 -12.5q47 0 84 17.5t57 41.5v537l-76 -17v121l451 133v-913h68v-123h-418l-29 109q-76 -61 -163.5 -100.5t-170.5 -39.5q-148 0 -219.5 71t-71.5 214v553zM311 1298q0 58 39.5 98t98.5 40q57 0 97 -40.5 t40 -97.5q0 -58 -40 -97.5t-97 -39.5q-60 0 -99 39t-39 98zM707 1298q0 59 39.5 98.5t97.5 39.5q57 0 97 -40.5t40 -97.5q0 -58 -40 -97.5t-97 -39.5q-60 0 -98.5 39t-38.5 98z" />
<glyph unicode="&#xfd;" horiz-adv-x="1175" d="M12 799l412 237l119 -278h4q16 57 54 118.5t99.5 110.5t124.5 49q48 0 109.5 -21.5t103.5 -21.5q46 0 66 29l59 -64l-508 -1161q-54 -124 -132.5 -185t-207.5 -61q-79 0 -147 27l53 305q121 -55 199 -55q82 3 82 70q0 22 -39 110l-332 717l-63 -45zM305 1278l502 195 l65 -244l-530 -90zM588 668q0 -28 18 -68l111 -242l141 357q-4 -1 -19 -4.5t-24 -3.5q-13 0 -77 18t-83 18q-40 0 -53.5 -20.5t-13.5 -54.5z" />
<glyph unicode="&#xfe;" horiz-adv-x="1251" d="M63 -195h72v1344l-72 -23v134l527 172v-125l-80 -29v-344q60 37 90 54t77 32.5t91 15.5q180 0 300 -136t120 -353q0 -109 -33 -212t-92.5 -185t-151.5 -131.5t-202 -49.5q-131 0 -199 41v-205h133v-122h-580v122zM510 291q0 -166 127 -166q94 0 135 69t41 238 q0 105 -20 181.5t-47 114.5t-65 60.5t-62 26.5t-50 4h-59v-528z" />
<glyph unicode="&#xff;" horiz-adv-x="1175" d="M12 799l412 237l119 -278h4q16 57 54 118.5t99.5 110.5t124.5 49q48 0 109.5 -21.5t103.5 -21.5q46 0 66 29l59 -64l-508 -1161q-54 -124 -132.5 -185t-207.5 -61q-79 0 -147 27l53 305q121 -55 199 -55q82 3 82 70q0 22 -39 110l-332 717l-63 -45zM254 1298 q0 59 39.5 98.5t97.5 39.5q57 0 97 -40.5t40 -97.5q0 -58 -40 -97.5t-97 -39.5q-60 0 -98.5 39t-38.5 98zM588 668q0 -28 18 -68l111 -242l141 357q-4 -1 -19 -4.5t-24 -3.5q-13 0 -77 18t-83 18q-40 0 -53.5 -20.5t-13.5 -54.5zM649 1298q0 59 39.5 98.5t97.5 39.5 q57 0 97.5 -40.5t40.5 -97.5q0 -58 -40.5 -97.5t-97.5 -39.5q-60 0 -98.5 39t-38.5 98z" />
<glyph unicode="&#x152;" horiz-adv-x="2048" d="M29 690q0 164 57.5 303.5t157 235.5t237 149.5t295.5 53.5q95 0 169 -18.5t97 -51.5h5v37h874v-291h-147v70q-113 61 -246 61h-123v-324h369v103h147v-381h-147v90h-369v-567h65q56 0 99 5t83 18.5t65.5 36t41 59t15.5 86.5h147v-365h-874v53h-5q-28 -41 -113 -63.5 t-198 -22.5q-204 0 -365 94t-249 259t-88 370zM471 883q0 -78 27.5 -196t74 -237t121.5 -203.5t158 -84.5q51 0 88 18t47 39v774q-5 26 -16 56t-33 64t-50.5 61t-71 45t-91.5 18q-45 0 -79 -7.5t-68.5 -29.5t-56.5 -60t-36 -103t-14 -154z" />
<glyph unicode="&#x153;" horiz-adv-x="1857" d="M29 504q0 242 163.5 387t413.5 145q256 0 393 -131q57 60 137 95.5t156 35.5q197 0 320.5 -116t181.5 -316l-582 -213q76 -190 258 -190q163 0 250 108l78 -84q-90 -119 -225 -187.5t-285 -68.5q-107 0 -189.5 34t-125.5 95q-55 -61 -153.5 -95t-213.5 -34 q-163 0 -293.5 63.5t-207 186.5t-76.5 285zM403 649q0 -49 7.5 -111t27.5 -136.5t49.5 -135t77.5 -101t107 -40.5q40 0 68.5 20t43 54.5t21 73t6.5 83.5q0 49 -7.5 111.5t-27.5 136.5t-49 134.5t-77 101.5t-107 41q-33 0 -58.5 -11t-40 -33t-23.5 -43t-12.5 -52t-4.5 -48.5 t-1 -44.5zM1130 721q0 -25 5 -55t17 -79.5t13 -54.5l265 101q-7 15 -21.5 52.5t-28 67t-32 61t-43.5 49.5t-54 18q-61 0 -91 -46.5t-30 -113.5z" />
<glyph unicode="&#x178;" horiz-adv-x="1327" d="M10 1239v160h682v-160h-110l223 -381l223 381h-131v160h422v-160h-70l-565 -971l4 -4q22 19 52.5 27.5t86.5 9.5q30 1 76.5 -8.5t59.5 -9.5q30 0 53 18.5t61 67.5l94 -15l-92 -362q-105 -25 -176 -25q-68 0 -165 19.5t-146 19.5q-70 0 -176 -35l-88 76l243 399l-497 793 h-64zM330 1655q0 59 39 98t98 39q57 0 97 -40t40 -97q0 -58 -40 -97.5t-97 -39.5q-60 0 -98.5 39t-38.5 98zM725 1655q0 59 39.5 98t97.5 39q57 0 97 -40t40 -97q0 -58 -40 -97.5t-97 -39.5q-60 0 -98.5 39t-38.5 98z" />
<glyph unicode="&#x2c6;" horiz-adv-x="681" d="M-55 1280l403 174l387 -172l-41 -143l-348 98l-362 -94z" />
<glyph unicode="&#x2dc;" horiz-adv-x="681" d="M-37 1200q14 30 18 37.5t18.5 35t21 37t21.5 31.5t26 31t28.5 23.5t33.5 20.5t37 11t44 5q40 0 135 -31q89 -33 141 -33q47 0 66.5 16.5t44.5 63.5l119 -57q-6 -11 -22.5 -43.5t-23 -44t-23 -38t-27 -37t-29.5 -28t-37 -24.5t-43 -13t-53 -6q-36 0 -133 29 q-124 41 -136 43q-26 6 -45.5 -7t-42.5 -45t-28 -38z" />
<glyph unicode="&#x2000;" horiz-adv-x="965" />
<glyph unicode="&#x2001;" horiz-adv-x="1931" />
<glyph unicode="&#x2002;" horiz-adv-x="965" />
<glyph unicode="&#x2003;" horiz-adv-x="1931" />
<glyph unicode="&#x2004;" horiz-adv-x="643" />
<glyph unicode="&#x2005;" horiz-adv-x="482" />
<glyph unicode="&#x2006;" horiz-adv-x="321" />
<glyph unicode="&#x2007;" horiz-adv-x="321" />
<glyph unicode="&#x2008;" horiz-adv-x="241" />
<glyph unicode="&#x2009;" horiz-adv-x="386" />
<glyph unicode="&#x200a;" horiz-adv-x="107" />
<glyph unicode="&#x2010;" horiz-adv-x="681" d="M92 373v260h498v-260h-498z" />
<glyph unicode="&#x2011;" horiz-adv-x="681" d="M92 373v260h498v-260h-498z" />
<glyph unicode="&#x2012;" horiz-adv-x="681" d="M92 373v260h498v-260h-498z" />
<glyph unicode="&#x2013;" horiz-adv-x="1024" d="M0 391v223h1024v-223h-1024z" />
<glyph unicode="&#x2014;" horiz-adv-x="2048" d="M0 391v223h2048v-223h-2048z" />
<glyph unicode="&#x2018;" horiz-adv-x="417" d="M29 1108q0 120 88 206t211 118l22 -101q-24 -10 -39.5 -17.5t-36 -21t-32.5 -31t-15 -38.5q68 -2 115 -49.5t47 -116.5q0 -67 -42 -115.5t-107 -48.5q-103 0 -157 56.5t-54 158.5z" />
<glyph unicode="&#x2019;" horiz-adv-x="417" d="M29 1268q0 67 42 115.5t107 48.5q103 0 157 -56.5t54 -158.5q0 -120 -88 -206t-211 -118l-22 100q114 46 122 109q-68 2 -114.5 49.5t-46.5 116.5z" />
<glyph unicode="&#x201a;" horiz-adv-x="417" d="M29 164q0 67 42 115.5t107 48.5q103 0 157 -56.5t54 -158.5q0 -120 -88 -206t-211 -118l-22 100q114 46 122 109q-68 2 -114.5 49.5t-46.5 116.5z" />
<glyph unicode="&#x201c;" horiz-adv-x="948" d="M66 1108q0 120 88 206t211 118l22 -101q-24 -10 -39.5 -17.5t-36 -21t-32.5 -31t-15 -38.5q68 -2 115 -49.5t47 -116.5q0 -67 -42 -115.5t-108 -48.5q-103 0 -156.5 56t-53.5 159zM520 1108q0 120 88 206t211 118l23 -101q-24 -10 -39.5 -17.5t-36 -21t-32.5 -31 t-15 -38.5q68 -2 115 -49.5t47 -116.5q0 -67 -42 -115.5t-108 -48.5q-103 0 -157 56.5t-54 158.5z" />
<glyph unicode="&#x201d;" horiz-adv-x="948" d="M68 1268q0 67 42 115.5t107 48.5q103 0 157 -56.5t54 -158.5q0 -120 -88 -206t-211 -118l-23 100q23 10 39.5 18t36.5 21.5t32 31t15 38.5q-68 2 -114.5 49.5t-46.5 116.5zM522 1268q0 67 42 115.5t108 48.5q103 0 157 -56.5t54 -158.5q0 -120 -88 -206t-211 -118 l-23 100q23 10 39.5 18t36.5 21.5t32 31t15 38.5q-68 2 -115 49.5t-47 116.5z" />
<glyph unicode="&#x201e;" horiz-adv-x="948" d="M68 164q0 67 42 115.5t107 48.5q103 0 157 -56.5t54 -158.5q0 -120 -88 -206t-211 -118l-23 100q23 10 39.5 18t36.5 21.5t32 31t15 38.5q-68 2 -114.5 49.5t-46.5 116.5zM522 164q0 67 42 115.5t108 48.5q103 0 157 -56.5t54 -158.5q0 -120 -88 -206t-211 -118l-23 100 q23 10 39.5 18t36.5 21.5t32 31t15 38.5q-68 2 -115 49.5t-47 116.5z" />
<glyph unicode="&#x2022;" horiz-adv-x="1024" d="M154 700q0 150 104 254.5t254 104.5q149 0 253.5 -105t104.5 -254t-104.5 -253.5t-253.5 -104.5q-150 0 -254 104t-104 254z" />
<glyph unicode="&#x2026;" horiz-adv-x="2048" d="M166 152q0 71 51.5 123.5t122.5 52.5q72 0 124 -52.5t52 -123.5q0 -72 -52 -123.5t-124 -51.5t-123 51.5t-51 123.5zM848 152q0 71 51.5 123.5t122.5 52.5q72 0 124 -52.5t52 -123.5q0 -72 -52 -123.5t-124 -51.5t-123 51.5t-51 123.5zM1530 152q0 71 51.5 123.5 t122.5 52.5q72 0 124 -52.5t52 -123.5q0 -72 -52 -123.5t-124 -51.5t-123 51.5t-51 123.5z" />
<glyph unicode="&#x202f;" horiz-adv-x="386" />
<glyph unicode="&#x2039;" horiz-adv-x="569" d="M78 506l219 399h195l-107 -399l102 -402h-194z" />
<glyph unicode="&#x203a;" horiz-adv-x="569" d="M78 905h194l220 -399l-216 -402h-194l102 402z" />
<glyph unicode="&#x205f;" horiz-adv-x="482" />
<glyph unicode="&#x2122;" horiz-adv-x="2048" d="M12 1219v180h787v-180h-56q-10 55 -41 89.5t-86 34.5h-86v-634q0 -27 2 -38t12 -23t31 -15.5t60 -5.5v-56h-459v56q39 2 60 5.5t31 15.5t12 23t2 38v634h-86q-55 0 -86 -34.5t-41 -89.5h-56zM874 1343v56h334l260 -539l283 539h285v-56q-39 -2 -60 -5.5t-31.5 -15 t-12 -22.5t-1.5 -38v-553q0 -27 2 -38t12 -23t31 -15.5t60 -5.5v-56h-459v56q39 2 60 5.5t31 15.5t11.5 23t1.5 38v426h-4l-286 -562h-33l-262 562h-4v-357q0 -32 0.5 -45.5t2 -34t5.5 -28t11 -18.5t19 -14.5t27.5 -6.5t38.5 -4v-56h-276v56q22 1 37.5 4t27 6.5t18.5 14.5 t11 18.5t5.5 28t2 34t0.5 45.5v455q-52 110 -148 110z" />
<glyph unicode="&#x25fc;" horiz-adv-x="1003" d="M0 0v1004h1004v-1004h-1004z" />
<glyph unicode="&#xfb01;" horiz-adv-x="1327" d="M45 805l76 160h117v4q-23 16 -36.5 64.5t-13.5 101.5q0 125 118.5 211t330.5 86q106 0 233.5 -43t237.5 -140l-350 -119q-81 152 -221 152q-64 0 -64 -78q0 -103 71.5 -171t170.5 -68q65 0 153 14l346 57v-913h68v-123h-520v123h78v682h-273v-682h115v-123h-580v123h91 v682h-148z" />
<glyph unicode="&#xfb02;" horiz-adv-x="1327" d="M43 805l76 160h117v4q-23 16 -35.5 64t-12.5 102q0 125 117.5 211t329.5 86q87 0 190 -29.5t162 -69.5l297 99v-119l-70 -33v-1157h70v-123h-520v123h76v1026l-76 -21q-34 57 -101.5 105.5t-130.5 48.5q-81 0 -81 -88q0 -60 27 -106t71.5 -72t95.5 -38.5t105 -12.5h32 l-86 -160h-129v-682h113v-123h-580v123h93v682h-150z" />
</font>
</defs>
</svg>
